<svg width="70" height="70" viewBox="0 0 70 70" fill="none" xmlns="http://www.w3.org/2000/svg">
<g id="Group 14">
<circle id="Oval" cx="35" cy="35" r="33.5" stroke="#011E41" stroke-width="3"/>
<path id="Shape" d="M24.2857 34.6776C23.712 34.0701 22.7818 34.0701 22.2081 34.6776C21.6343 35.2851 21.6343 36.27 22.2081 36.8775L29.5538 44.6553C30.1275 45.2628 31.0577 45.2628 31.6314 44.6553L47.7919 27.5442C48.3656 26.9367 48.3656 25.9518 47.7919 25.3443C47.2182 24.7368 46.288 24.7368 45.7142 25.3443L30.5926 41.3555L24.2857 34.6776Z" fill="#011E41"/>
<mask id="mask0_2198_41203" style="mask-type:alpha" maskUnits="userSpaceOnUse" x="21" y="24" width="28" height="22">
<path id="Shape_2" d="M24.2857 34.6776C23.712 34.0701 22.7818 34.0701 22.2081 34.6776C21.6343 35.2851 21.6343 36.27 22.2081 36.8775L29.5538 44.6553C30.1275 45.2628 31.0577 45.2628 31.6314 44.6553L47.7919 27.5442C48.3656 26.9367 48.3656 25.9518 47.7919 25.3443C47.2182 24.7368 46.288 24.7368 45.7142 25.3443L30.5926 41.3555L24.2857 34.6776Z" fill="white"/>
</mask>
<g mask="url(#mask0_2198_41203)">
</g>
</g>
</svg>
