<svg width="21" height="20" viewBox="0 0 21 20" fill="none" xmlns="http://www.w3.org/2000/svg">
<path fill-rule="evenodd" clip-rule="evenodd" d="M15.4479 4.37565H14.25V3.75065C14.25 3.52055 14.0634 3.33398 13.8333 3.33398C13.6032 3.33398 13.4166 3.52055 13.4166 3.75065V4.37565H7.58331V3.75065C7.58331 3.52055 7.39678 3.33398 7.16665 3.33398C6.93652 3.33398 6.74998 3.52055 6.74998 3.75065V4.37565H5.55206C4.60433 4.37565 3.83331 5.14667 3.83331 6.0944V14.9486C3.83331 15.8963 4.60433 16.6673 5.55206 16.6673H15.4479C16.3956 16.6673 17.1666 15.8963 17.1666 14.9486V6.0944C17.1666 5.14667 16.3956 4.37565 15.4479 4.37565ZM5.55206 5.20898H6.74998V5.62565C6.74998 5.85575 6.93652 6.04232 7.16665 6.04232C7.39678 6.04232 7.58331 5.85575 7.58331 5.62565V5.20898H13.4166V5.62565C13.4166 5.85575 13.6032 6.04232 13.8333 6.04232C14.0634 6.04232 14.25 5.85575 14.25 5.62565V5.20898H15.4479C15.9361 5.20898 16.3333 5.60617 16.3333 6.0944V7.08398H4.66665V6.0944C4.66665 5.60617 5.06383 5.20898 5.55206 5.20898ZM5.55206 15.834H15.4479C15.9361 15.834 16.3333 15.4368 16.3333 14.9486V7.91732H4.66665V14.9486C4.66665 15.4368 5.06383 15.834 5.55206 15.834Z" fill="#011E41"/>
<path d="M14.25 4.37565H14.15V4.47565H14.25V4.37565ZM13.4166 4.37565V4.47565H13.5166V4.37565H13.4166ZM7.58331 4.37565H7.48331V4.47565H7.58331V4.37565ZM6.74998 4.37565V4.47565H6.84998V4.37565H6.74998ZM6.74998 5.20898H6.84998V5.10898H6.74998V5.20898ZM7.58331 5.20898V5.10898H7.48331V5.20898H7.58331ZM13.4166 5.20898H13.5166V5.10898H13.4166V5.20898ZM14.25 5.20898V5.10898H14.15V5.20898H14.25ZM16.3333 7.08398V7.18398H16.4333V7.08398H16.3333ZM4.66665 7.08398H4.56665V7.18398H4.66665V7.08398ZM16.3333 7.91732H16.4333V7.81732H16.3333V7.91732ZM4.66665 7.91732V7.81732H4.56665V7.91732H4.66665ZM14.25 4.47565H15.4479V4.27565H14.25V4.47565ZM14.15 3.75065V4.37565H14.35V3.75065H14.15ZM13.8333 3.43398C14.0082 3.43398 14.15 3.57577 14.15 3.75065H14.35C14.35 3.46532 14.1187 3.23398 13.8333 3.23398V3.43398ZM13.5166 3.75065C13.5166 3.57577 13.6584 3.43398 13.8333 3.43398V3.23398C13.5479 3.23398 13.3166 3.46532 13.3166 3.75065H13.5166ZM13.5166 4.37565V3.75065H13.3166V4.37565H13.5166ZM7.58331 4.47565H13.4166V4.27565H7.58331V4.47565ZM7.48331 3.75065V4.37565H7.68331V3.75065H7.48331ZM7.16665 3.43398C7.34154 3.43398 7.48331 3.57577 7.48331 3.75065H7.68331C7.68331 3.46532 7.45201 3.23398 7.16665 3.23398V3.43398ZM6.84998 3.75065C6.84998 3.57577 6.99175 3.43398 7.16665 3.43398V3.23398C6.88128 3.23398 6.64998 3.46532 6.64998 3.75065H6.84998ZM6.84998 4.37565V3.75065H6.64998V4.37565H6.84998ZM5.55206 4.47565H6.74998V4.27565H5.55206V4.47565ZM3.93331 6.0944C3.93331 5.20189 4.65956 4.47565 5.55206 4.47565V4.27565C4.5491 4.27565 3.73331 5.09144 3.73331 6.0944H3.93331ZM3.93331 14.9486V6.0944H3.73331V14.9486H3.93331ZM5.55206 16.5673C4.65956 16.5673 3.93331 15.8411 3.93331 14.9486H3.73331C3.73331 15.9515 4.5491 16.7673 5.55206 16.7673V16.5673ZM15.4479 16.5673H5.55206V16.7673H15.4479V16.5673ZM17.0666 14.9486C17.0666 15.8411 16.3404 16.5673 15.4479 16.5673V16.7673C16.4509 16.7673 17.2666 15.9515 17.2666 14.9486H17.0666ZM17.0666 6.0944V14.9486H17.2666V6.0944H17.0666ZM15.4479 4.47565C16.3404 4.47565 17.0666 5.20189 17.0666 6.0944H17.2666C17.2666 5.09144 16.4509 4.27565 15.4479 4.27565V4.47565ZM6.74998 5.10898H5.55206V5.30898H6.74998V5.10898ZM6.84998 5.62565V5.20898H6.64998V5.62565H6.84998ZM7.16665 5.94232C6.99175 5.94232 6.84998 5.80053 6.84998 5.62565H6.64998C6.64998 5.91098 6.88128 6.14232 7.16665 6.14232V5.94232ZM7.48331 5.62565C7.48331 5.80053 7.34154 5.94232 7.16665 5.94232V6.14232C7.45201 6.14232 7.68331 5.91098 7.68331 5.62565H7.48331ZM7.48331 5.20898V5.62565H7.68331V5.20898H7.48331ZM13.4166 5.10898H7.58331V5.30898H13.4166V5.10898ZM13.5166 5.62565V5.20898H13.3166V5.62565H13.5166ZM13.8333 5.94232C13.6584 5.94232 13.5166 5.80053 13.5166 5.62565H13.3166C13.3166 5.91098 13.548 6.14232 13.8333 6.14232V5.94232ZM14.15 5.62565C14.15 5.80053 14.0082 5.94232 13.8333 5.94232V6.14232C14.1187 6.14232 14.35 5.91098 14.35 5.62565H14.15ZM14.15 5.20898V5.62565H14.35V5.20898H14.15ZM15.4479 5.10898H14.25V5.30898H15.4479V5.10898ZM16.4333 6.0944C16.4333 5.55094 15.9914 5.10898 15.4479 5.10898V5.30898C15.8809 5.30898 16.2333 5.6614 16.2333 6.0944H16.4333ZM16.4333 7.08398V6.0944H16.2333V7.08398H16.4333ZM4.66665 7.18398H16.3333V6.98398H4.66665V7.18398ZM4.56665 6.0944V7.08398H4.76665V6.0944H4.56665ZM5.55206 5.10898C5.00861 5.10898 4.56665 5.55094 4.56665 6.0944H4.76665C4.76665 5.6614 5.11906 5.30898 5.55206 5.30898V5.10898ZM15.4479 15.734H5.55206V15.934H15.4479V15.734ZM16.2333 14.9486C16.2333 15.3816 15.8809 15.734 15.4479 15.734V15.934C15.9914 15.934 16.4333 15.492 16.4333 14.9486H16.2333ZM16.2333 7.91732V14.9486H16.4333V7.91732H16.2333ZM4.66665 8.01732H16.3333V7.81732H4.66665V8.01732ZM4.76665 14.9486V7.91732H4.56665V14.9486H4.76665ZM5.55206 15.734C5.11906 15.734 4.76665 15.3816 4.76665 14.9486H4.56665C4.56665 15.492 5.00861 15.934 5.55206 15.934V15.734Z" fill="#011E41"/>
</svg>
