<svg width="120" height="96" viewBox="0 0 120 96" fill="none" xmlns="http://www.w3.org/2000/svg">
<path d="M37.1031 54.418C41.684 54.418 45.9202 56.8267 48.2654 60.7469V70.2312H18V60.7469C20.3452 56.8267 24.5814 54.418 29.1623 54.418H37.1031Z" stroke="#011E41" stroke-width="2"/>
<circle cx="32.797" cy="42.9982" r="7.40245" stroke="#011E41" stroke-width="2"/>
<path d="M88.8454 54.4121C93.3618 54.4121 97.5385 56.7864 99.8517 60.6506V69.9969H70V60.6506C72.3132 56.7864 76.4899 54.4121 81.0064 54.4121H88.8454Z" stroke="#011E41" stroke-width="2"/>
<circle cx="84.5945" cy="43.1268" r="7.29473" stroke="#011E41" stroke-width="2"/>
<rect x="7" y="20" width="52" height="68" stroke="#011E41" stroke-width="2"/>
<rect x="7" y="7" width="104" height="13" stroke="#011E41" stroke-width="2"/>
<rect x="59" y="20" width="52" height="68" stroke="#011E41" stroke-width="2"/>
<line x1="31.1494" y1="81.8516" x2="34.7239" y2="81.8516" stroke="#011E41" stroke-width="2"/>
<line x1="38.2979" y1="81.8516" x2="41.8723" y2="81.8516" stroke="#011E41" stroke-width="2"/>
<line x1="24" y1="81.8516" x2="27.5745" y2="81.8516" stroke="#011E41" stroke-width="2"/>
<line x1="83.1494" y1="81.8516" x2="86.7239" y2="81.8516" stroke="#011E41" stroke-width="2"/>
<line x1="90.2979" y1="81.8516" x2="93.8723" y2="81.8516" stroke="#011E41" stroke-width="2"/>
<line x1="76" y1="81.8516" x2="79.5745" y2="81.8516" stroke="#011E41" stroke-width="2"/>
<circle cx="15.8303" cy="13.1496" r="1.93085" stroke="#011E41" stroke-width="1.5"/>
<circle cx="24.7668" cy="13.1496" r="1.93085" stroke="#011E41" stroke-width="1.5"/>
<circle cx="33.7023" cy="13.1496" r="1.93085" stroke="#011E41" stroke-width="1.5"/>
</svg>
