<svg width="124" height="90" viewBox="0 0 124 90" fill="none" xmlns="http://www.w3.org/2000/svg">
<path d="M11 87.0135V73.1555C14.3598 67.462 20.4825 63.959 27.1065 63.959H38.2753C44.8993 63.959 51.022 67.462 54.3818 73.1555V87.0135H11Z" stroke="#011E41" stroke-width="2"/>
<circle cx="32.2186" cy="48.3045" r="10.8182" stroke="#011E41" stroke-width="2"/>
<path d="M69.6182 87.0135V73.1555C72.978 67.462 79.1007 63.959 85.7246 63.959H96.8935C103.517 63.959 109.64 67.462 113 73.1555V87.0135H69.6182Z" stroke="#011E41" stroke-width="2"/>
<circle cx="90.8367" cy="48.3045" r="10.8182" stroke="#011E41" stroke-width="2"/>
<path d="M57.1873 30.7765L50.1182 36.9606V31.5291V30.5291H49.1182H41.3906V3.16406H83.6101V30.5291H57.8457H57.47L57.1873 30.7765Z" stroke="#011E41" stroke-width="2"/>
<path d="M48.5127 20.2137H66.1103M48.5127 12.0918H76.0371" stroke="#011E41"/>
</svg>
