<svg width="104" height="96" viewBox="0 0 104 96" fill="none" xmlns="http://www.w3.org/2000/svg">
<path fill-rule="evenodd" clip-rule="evenodd" d="M2 82H100V96H2V82ZM4 84V94H98V84H4Z" fill="#011E41"/>
<path fill-rule="evenodd" clip-rule="evenodd" d="M13.4366 27.8321C13.8943 28.5185 14.0607 28.9974 14.0607 29.4785C14.0607 29.9868 13.8759 30.6083 13.3896 31.5805C12.7587 32.842 12.9731 33.985 13.4726 34.8527C13.9512 35.6841 14.6864 36.2665 15.1742 36.5592L15.9459 35.2729C15.6003 35.0656 15.0855 34.6479 14.7726 34.1043C14.4806 33.5971 14.3618 32.99 14.7312 32.2515C15.2452 31.2238 15.5606 30.3453 15.5607 29.4786C15.5607 28.5847 15.2271 27.8136 14.6847 27L13.4366 27.8321ZM22.0911 46.75C21.3678 46.75 20.7705 47.3435 20.7705 48.0869V49.9239H25.2705V48.0869C25.2705 47.3435 24.6732 46.75 23.95 46.75H22.0911ZM26.7705 49.9239V48.0869C26.7705 46.5262 25.5128 45.25 23.95 45.25H22.0911C20.5283 45.25 19.2705 46.5262 19.2705 48.0869V49.9239H5.73288V58.25H2.88581C1.98762 58.25 1.25 58.9741 1.25 59.8792V63.9547C1.25 64.8598 1.98762 65.5839 2.88581 65.5839H5.73288V83.3438H39.3888V65.5839H42.3636C43.2618 65.5839 43.9995 64.8598 43.9995 63.9547V59.8792C43.9995 58.9741 43.2618 58.25 42.3636 58.25H39.3888V49.9239H26.7705ZM39.3888 59.75V64.0839H42.3636C42.444 64.0839 42.4995 64.0208 42.4995 63.9547V59.8792C42.4995 59.8131 42.444 59.75 42.3636 59.75H39.3888ZM5.73288 64.0839V59.75H2.88581C2.80545 59.75 2.75 59.8131 2.75 59.8792V63.9547C2.75 64.0208 2.80545 64.0839 2.88581 64.0839H5.73288ZM7.73288 81.3438V59.75H37.3888V81.3438H7.73288ZM37.3888 58.25H7.73288V51.9239H37.3888V58.25ZM22.6212 29.4785C22.6212 28.9974 22.4548 28.5185 21.9972 27.8321L23.2453 27C23.7877 27.8136 24.1213 28.5847 24.1212 29.4786C24.1212 30.3453 23.8058 31.2238 23.2917 32.2515C22.9224 32.99 23.0411 33.5971 23.3331 34.1043C23.6461 34.6479 24.1609 35.0656 24.5065 35.2729L23.7347 36.5592C23.247 36.2665 22.5118 35.6841 22.0332 34.8527C21.5336 33.985 21.3192 32.842 21.9502 31.5805C22.4365 30.6083 22.6212 29.9868 22.6212 29.4785ZM29.9972 27.8321C30.4548 28.5185 30.6212 28.9974 30.6212 29.4785C30.6212 29.9868 30.4365 30.6083 29.9502 31.5805C29.3192 32.842 29.5336 33.985 30.0332 34.8527C30.5118 35.6841 31.247 36.2665 31.7347 36.5592L32.5065 35.2729C32.1609 35.0656 31.6461 34.6479 31.3331 34.1043C31.0411 33.5971 30.9224 32.99 31.2917 32.2515C31.8058 31.2238 32.1212 30.3453 32.1212 29.4786C32.1213 28.5847 31.7877 27.8136 31.2453 27L29.9972 27.8321Z" fill="#011E41"/>
<path fill-rule="evenodd" clip-rule="evenodd" d="M50.5422 7.12891V6.5786C51.9284 4.41722 54.3169 3 57.0251 3C59.8345 3 62.3021 4.52659 63.6601 6.82927L63.9885 7.38622L64.6314 7.31523L64.6387 7.31443L64.6634 7.31177L64.7571 7.30202C64.8372 7.29388 64.948 7.28305 65.0709 7.27224C65.3288 7.24959 65.5993 7.23087 65.7612 7.23087C70.0192 7.23087 73.5 10.7457 73.5 15.1154C73.5 19.4851 70.0192 23 65.7612 23C64.6116 23 63.5242 22.744 62.5473 22.2861L61.6985 24.0971C62.9345 24.6763 64.311 25 65.7612 25C66.0098 25 66.2562 24.9906 66.5 24.972V32H46.5V24.9406C46.8638 24.9799 47.2332 25 47.6074 25C49.15 25 50.6137 24.6567 51.9238 24.0437L51.0762 22.2322C50.0256 22.7237 48.8507 23 47.6074 23C43.1191 23 39.5 19.4066 39.5 15C39.5 10.5934 43.1191 7 47.6074 7C47.9247 7 48.2368 7.01737 48.5422 7.05177V7.12891H49.0671L49.1075 7.13637L49.1089 7.12891H50.5422ZM75.5 15.1154C75.5 19.5981 72.5528 23.4016 68.5 24.6041V32V34V38.9897C68.4971 45.5609 63.4893 51 57.1767 51H55.8206C49.5081 51 44.5 45.5613 44.5 38.9897V34V32V24.5181C40.4437 23.2221 37.5 19.4572 37.5 15C37.5 9.4665 42.0369 5 47.6074 5C48.1188 5 48.6249 5.03669 49.1208 5.11079C50.8857 2.62611 53.7636 1 57.0251 1C60.3524 1 63.2831 2.69387 65.0368 5.26799C65.271 5.24898 65.547 5.23087 65.7612 5.23087C71.1549 5.23087 75.5 9.67249 75.5 15.1154ZM46.5 34H66.5V38.9897C66.4973 44.5808 62.2646 49 57.1767 49H55.8206C50.7325 49 46.5 44.5806 46.5 38.9897V34ZM47.14 55.0039C45.9138 55.0039 44.7099 55.1024 43.5402 55.293C43.4634 55.3066 43.4305 55.3118 43.4026 55.3161L43.4025 55.3161C43.3748 55.3205 43.3518 55.324 43.295 55.3345L43.2842 55.3364C42.4382 55.4823 41.6039 55.6824 40.7842 55.9256L40.7708 55.9296L38.7573 56.4663L38.2422 54.5337L40.2288 54.0042C41.1108 53.7431 42.0157 53.5258 42.9402 53.3662C42.9828 53.3585 43.0814 53.3421 43.1438 53.3316L43.144 53.3316L43.1453 53.3314L43.1467 53.3312L43.198 53.3225L43.2114 53.3203C44.4904 53.1114 45.8043 53.0039 47.14 53.0039H64.0398C71.7247 53.0039 78.5662 56.5888 82.9635 62.1621C83.4424 61.9152 83.9576 61.7286 84.499 61.6121V39.9341H82.6923C81.1375 39.9341 79.8633 38.682 79.8633 37.1206V22.7354C79.8633 21.1786 81.1329 19.9219 82.6923 19.9219H91.9061C93.4609 19.9219 94.7351 21.174 94.7351 22.7354V37.1206L94.7351 37.1227C94.7308 38.6767 93.4635 39.9341 91.9061 39.9341H90.2515V61.5423C93.2282 61.9897 95.5206 64.5408 95.5206 67.6377V83.3449H79.6133V67.6377C79.6133 65.9715 80.2774 64.4618 81.3558 63.3534C77.322 58.2696 71.0673 55.0039 64.0398 55.0039H47.14ZM85.999 61.4727H88.7515V39.9355H85.999V61.4727ZM81.6133 67.6377C81.6133 65.3452 83.4868 63.4727 85.8171 63.4727H89.3168C91.6448 63.4727 93.5206 65.3429 93.5206 67.6377V81.3449H81.6133V67.6377ZM81.3633 22.7354C81.3633 22.0161 81.9522 21.4219 82.6923 21.4219H91.9061C92.6445 21.4219 93.2351 22.0144 93.2351 22.7354V37.1194C93.2326 37.8411 92.6416 38.4341 91.9061 38.4341H82.6923C81.9539 38.4341 81.3633 37.8416 81.3633 37.1206V22.7354ZM85.249 25.5879C85.6632 25.5879 85.999 25.9237 85.999 26.3379V33.6946C85.999 34.1089 85.6632 34.4446 85.249 34.4446C84.8348 34.4446 84.499 34.1089 84.499 33.6946V26.3379C84.499 25.9237 84.8348 25.5879 85.249 25.5879ZM90.6465 26.3379C90.6465 25.9237 90.3107 25.5879 89.8965 25.5879C89.4823 25.5879 89.1465 25.9237 89.1465 26.3379V33.6946C89.1465 34.1089 89.4823 34.4446 89.8965 34.4446C90.3107 34.4446 90.6465 34.1089 90.6465 33.6946V26.3379ZM56.6389 63.2188C55.8665 63.2188 55.25 63.8387 55.25 64.5917C55.25 65.3446 55.8665 65.9646 56.6389 65.9646C57.4112 65.9646 58.0277 65.3446 58.0277 64.5917C58.0277 63.8387 57.4112 63.2188 56.6389 63.2188ZM53.75 64.5917C53.75 62.9997 55.0487 61.7188 56.6389 61.7188C58.229 61.7188 59.5277 62.9997 59.5277 64.5917C59.5277 66.1836 58.229 67.4646 56.6389 67.4646C55.0487 67.4646 53.75 66.1836 53.75 64.5917ZM55.25 75.869C55.25 75.1161 55.8665 74.4961 56.6389 74.4961C57.4112 74.4961 58.0277 75.116 58.0277 75.869C58.0277 76.622 57.4112 77.2419 56.6389 77.2419C55.8665 77.2419 55.25 76.622 55.25 75.869ZM56.6389 72.9961C55.0487 72.9961 53.75 74.2771 53.75 75.869C53.75 77.461 55.0487 78.7419 56.6389 78.7419C58.229 78.7419 59.5277 77.461 59.5277 75.869C59.5277 74.2771 58.229 72.9961 56.6389 72.9961Z" fill="#011E41"/>
</svg>
