<svg width="34" height="26" viewBox="0 0 34 26" fill="none" xmlns="http://www.w3.org/2000/svg">
<path fill-rule="evenodd" clip-rule="evenodd" d="M12.604 19.3064V6.70241L23.1074 13.0044L12.604 19.3064ZM33.264 5.83956C33.264 5.83956 32.9361 3.36929 31.9281 2.28065C30.6513 0.854663 29.2186 0.846599 28.5627 0.764615C23.86 0.400391 16.8067 0.400391 16.8067 0.400391H16.7919C16.7919 0.400391 9.73862 0.400391 5.03731 0.764615C4.38144 0.846599 2.95008 0.854663 1.67059 2.28065C0.66528 3.36929 0.336 5.83956 0.336 5.83956C0.336 5.83956 0 8.73991 0 11.6403V14.3578C0 17.2609 0.336 20.1599 0.336 20.1599C0.336 20.1599 0.663936 22.6301 1.67059 23.7161C2.95008 25.1421 4.62739 25.0991 5.376 25.2483C8.064 25.5224 16.8 25.6085 16.8 25.6085C16.8 25.6085 23.86 25.5964 28.5627 25.2362C29.2186 25.1515 30.6513 25.1434 31.9281 23.7161C32.9347 22.6315 33.264 20.1599 33.264 20.1599C33.264 20.1599 33.6 17.2609 33.6 14.3592V11.6403C33.6 8.73991 33.264 5.83956 33.264 5.83956Z" fill="#011E41"/>
</svg>
