<svg width="22" height="28" viewBox="0 0 22 28" fill="none" xmlns="http://www.w3.org/2000/svg">
<path fill-rule="evenodd" clip-rule="evenodd" d="M11.4956 0C3.85333 0 0 5.47832 0 10.0476C0 12.8136 1.04847 15.2739 3.29423 16.1909C3.6616 16.3425 3.99277 16.1963 4.09869 15.7887C4.17377 15.5072 4.34941 14.7952 4.42851 14.4976C4.53577 14.094 4.49287 13.9532 4.19656 13.6006C3.54898 12.8377 3.13468 11.8482 3.13468 10.4472C3.13468 6.38333 6.17551 2.74452 11.0518 2.74452C15.3717 2.74452 17.7449 5.38313 17.7449 8.90797C17.7449 13.5456 15.6922 17.4593 12.646 17.4593C10.9633 17.4593 9.70438 16.0676 10.1066 14.3608C10.5906 12.3229 11.5265 10.1254 11.5265 8.65457C11.5265 7.33795 10.8199 6.23987 9.35846 6.23987C7.63828 6.23987 6.25596 8.01905 6.25596 10.4029C6.25596 11.9206 6.76947 12.9477 6.76947 12.9477C6.76947 12.9477 5.00906 20.4049 4.70068 21.7108C4.08662 24.3132 4.60817 27.5002 4.65242 27.822C4.67923 28.0137 4.92325 28.0593 5.03453 27.9158C5.19274 27.708 7.24275 25.1794 7.9386 22.652C8.1357 21.9374 9.06886 18.2316 9.06886 18.2316C9.62795 19.2988 11.2623 20.2347 12.9986 20.2347C18.1686 20.2347 21.676 15.5219 21.676 9.21366C21.6773 4.44192 17.6363 0 11.4956 0Z" fill="#011E41"/>
</svg>
