<svg width="31" height="26" viewBox="0 0 31 26" fill="none" xmlns="http://www.w3.org/2000/svg">
<path fill-rule="evenodd" clip-rule="evenodd" d="M9.74602 25.5989C21.4459 25.5989 27.8446 15.9022 27.8446 7.50036C27.8446 7.22769 27.8446 6.95503 27.8254 6.67278C29.0709 5.76846 30.141 4.66 30.996 3.37615C29.8396 3.89133 28.6037 4.23113 27.339 4.37774C28.6722 3.5803 29.6642 2.33482 30.141 0.856401C28.8955 1.59629 27.524 2.12107 26.1045 2.40332C23.693 -0.154784 19.6661 -0.28084 17.108 2.13066C15.4555 3.68717 14.754 6.00139 15.2706 8.21011C10.1543 7.95663 5.38888 5.53416 2.15939 1.56615C0.467228 4.47502 1.33318 8.18956 4.12421 10.0571C3.11303 10.0283 2.12102 9.75566 1.23589 9.25966V9.33776C1.23589 12.3617 3.3761 14.9692 6.34252 15.572C5.40806 15.8255 4.42565 15.8639 3.47201 15.6789C4.30919 18.2658 6.69191 20.0456 9.41444 20.0936C7.15914 21.8639 4.3777 22.8271 1.51815 22.8271C1.01119 22.8271 0.505593 22.7983 0 22.7394C2.89791 24.6069 6.2836 25.5989 9.74602 25.5989Z" fill="#011E41"/>
</svg>
