<svg width="18" height="17" viewBox="0 0 18 17" fill="none" xmlns="http://www.w3.org/2000/svg">
<path d="M9.00008 1.71961C11.2223 1.71961 11.5001 1.71961 12.4029 1.78906C14.6945 1.8585 15.7362 2.96961 15.8056 5.19183C15.8751 6.09461 15.8751 6.30294 15.8751 8.52517C15.8751 10.7474 15.8751 11.0252 15.8056 11.8585C15.7362 14.0807 14.6251 15.1918 12.4029 15.2613C11.5001 15.3307 11.2917 15.3307 9.00008 15.3307C6.77786 15.3307 6.50008 15.3307 5.66675 15.2613C3.37508 15.1918 2.33341 14.0807 2.26397 11.8585C2.19453 10.9557 2.19453 10.7474 2.19453 8.52517C2.19453 6.30294 2.19453 6.02517 2.26397 5.19183C2.33341 2.96961 3.44453 1.8585 5.66675 1.78906C6.50008 1.71961 6.77786 1.71961 9.00008 1.71961ZM9.00008 0.191833C6.70842 0.191833 6.43064 0.191833 5.5973 0.261278C2.54175 0.400167 0.875081 2.06683 0.736192 5.12239C0.666748 5.95572 0.666748 6.2335 0.666748 8.52517C0.666748 10.8168 0.666748 11.0946 0.736192 11.9279C0.875081 14.9835 2.54175 16.6502 5.5973 16.7891C6.43064 16.8585 6.70842 16.8585 9.00008 16.8585C11.2917 16.8585 11.5695 16.8585 12.4029 16.7891C15.4584 16.6502 17.1251 14.9835 17.264 11.9279C17.3334 11.0946 17.3334 10.8168 17.3334 8.52517C17.3334 6.2335 17.3334 5.95572 17.264 5.12239C17.1251 2.06683 15.4584 0.400167 12.4029 0.261278C11.5695 0.191833 11.2917 0.191833 9.00008 0.191833ZM9.00008 4.21961C6.63897 4.21961 4.69453 6.16406 4.69453 8.52517C4.69453 10.8863 6.63897 12.8307 9.00008 12.8307C11.3612 12.8307 13.3056 10.8863 13.3056 8.52517C13.3056 6.16406 11.3612 4.21961 9.00008 4.21961ZM9.00008 11.3029C7.4723 11.3029 6.2223 10.0529 6.2223 8.52517C6.2223 6.99739 7.4723 5.74739 9.00008 5.74739C10.5279 5.74739 11.7779 6.99739 11.7779 8.52517C11.7779 10.0529 10.5279 11.3029 9.00008 11.3029ZM13.4445 3.1085C12.889 3.1085 12.4723 3.52517 12.4723 4.08072C12.4723 4.63628 12.889 5.05294 13.4445 5.05294C14.0001 5.05294 14.4167 4.63628 14.4167 4.08072C14.4167 3.52517 14.0001 3.1085 13.4445 3.1085Z" fill="#011E41"/>
</svg>
