<svg width="20" height="22" viewBox="0 0 20 22" fill="none" xmlns="http://www.w3.org/2000/svg">
<path d="M9.9826 20.3333L9.5659 20.9569C9.81814 21.1255 10.1471 21.1255 10.3993 20.9569L9.9826 20.3333ZM9.9826 20.3333C10.3993 20.9569 10.3995 20.9568 10.3997 20.9566L10.4003 20.9563L10.402 20.9551L10.4074 20.9515L10.4261 20.9388C10.4421 20.9279 10.465 20.9122 10.4943 20.8919C10.553 20.8511 10.6374 20.7917 10.7439 20.7146C10.9569 20.5605 11.2586 20.3352 11.6196 20.0471C12.3404 19.4718 13.3034 18.6409 14.269 17.6193C16.1696 15.6085 18.2152 12.7175 18.2152 9.5C18.2152 4.94529 14.531 1.25 9.9826 1.25C5.43422 1.25 1.75 4.94529 1.75 9.5C1.75 12.7175 3.79561 15.6085 5.69624 17.6193C6.66178 18.6409 7.62479 19.4718 8.34558 20.0471C8.70657 20.3352 9.00833 20.5605 9.22129 20.7146C9.32781 20.7917 9.41223 20.8511 9.47087 20.8919C9.50019 20.9122 9.52308 20.9279 9.53907 20.9388L9.55782 20.9515L9.56322 20.9551L9.5649 20.9563L9.56549 20.9566C9.56571 20.9568 9.5659 20.9569 9.9826 20.3333Z" stroke="#011E41" stroke-width="1.5" stroke-linecap="round" stroke-linejoin="round"/>
<path d="M9.98248 12.75C11.7758 12.75 13.2267 11.2933 13.2267 9.5C13.2267 7.70672 11.7758 6.25 9.98248 6.25C8.18912 6.25 6.73828 7.70672 6.73828 9.5C6.73828 11.2933 8.18912 12.75 9.98248 12.75Z" stroke="#011E41" stroke-width="1.5" stroke-linecap="round" stroke-linejoin="round"/>
</svg>
