<svg width="24" height="24" viewBox="0 0 24 24" fill="none" xmlns="http://www.w3.org/2000/svg">
<path d="M11.6204 7.38733V10.517H13.0281V7.38733C13.6806 7.11186 14.1397 6.46552 14.1397 5.7139C14.1397 4.71284 13.3253 3.89844 12.3243 3.89844C11.3232 3.89844 10.5088 4.71284 10.5088 5.7139C10.5088 6.46548 10.968 7.11186 11.6204 7.38733Z" fill="#011E41"/>
<path d="M0 11.9258V24.0001H24V11.9258H0ZM6.85851 21.0564H3.77042V14.8538H5.17804V19.6488H6.85846V21.0564H6.85851ZM9.68244 21.0154H8.27481V14.8087H9.68244V21.0154ZM13.8689 20.9168H12.647L10.5356 14.7997H12.0235L13.2439 18.3328L14.4169 14.7997H15.9334L13.8689 20.9168ZM20.2296 16.2383H18.2259V17.2083H20.0818V18.6159H18.2259V19.5858H20.2295V20.9935H16.8183V14.8306H20.2295V16.2383H20.2296Z" fill="#011E41"/>
<path d="M14.6191 8.6177L15.6145 9.61303L16.1121 9.11534C17.9866 7.24076 17.9866 4.19063 16.1121 2.31605L15.6145 1.81836L14.6191 2.81369L15.1168 3.31138C16.4425 4.63713 16.4425 6.79427 15.1168 8.12001L14.6191 8.6177Z" fill="#011E41"/>
<path d="M8.53905 9.11525L9.03669 9.61294L10.032 8.61761L9.53438 8.11997C8.89213 7.47771 8.53848 6.6239 8.53848 5.71565C8.53848 4.80745 8.89213 3.95354 9.53438 3.31133L10.032 2.81369L9.03669 1.81836L8.53905 2.31605C7.63094 3.22415 7.13086 4.43147 7.13086 5.7157C7.13086 6.99983 7.63094 8.20719 8.53905 9.11525Z" fill="#011E41"/>
<path d="M17.4137 9.93689L16.9161 10.4345L17.9113 11.4299L18.409 10.9322C21.2858 8.05541 21.2858 3.3745 18.409 0.497689L17.9113 0L16.916 0.995331L17.4137 1.49297C19.7416 3.82104 19.7416 7.60891 17.4137 9.93689Z" fill="#011E41"/>
<path d="M6.73982 11.4299L7.73515 10.4346L7.23746 9.93689C6.10977 8.80915 5.48868 7.30979 5.48868 5.71496C5.48868 4.12012 6.10977 2.62076 7.23746 1.49302L7.7351 0.995378L6.73982 0L6.24218 0.497689C4.84854 1.89128 4.08105 3.74414 4.08105 5.71496C4.08105 7.68577 4.84854 9.53863 6.24218 10.9322L6.73982 11.4299Z" fill="#011E41"/>
</svg>
