<svg width="24" height="24" viewBox="0 0 24 24" fill="none" xmlns="http://www.w3.org/2000/svg">
<path fill-rule="evenodd" clip-rule="evenodd" d="M0.37793 9.13655C0.37793 4.15423 4.41693 0.115234 9.39925 0.115234C14.3816 0.115234 18.4206 4.15423 18.4206 9.13655C18.4206 14.1187 14.3816 18.1577 9.39925 18.1577C4.41693 18.1577 0.37793 14.1187 0.37793 9.13655ZM17.3993 9.13656C17.3993 4.72521 13.8104 1.13648 9.39925 1.13648C4.9881 1.13648 1.39925 4.72521 1.39925 9.13656C1.39925 13.5478 4.9881 17.1365 9.39925 17.1365C13.8104 17.1365 17.3993 13.5478 17.3993 9.13656Z" fill="#011E41"/>
<path d="M22.3217 22.8797L14.6904 15.2484L15.8783 14.0605L23.5094 21.6918L22.3217 22.8797Z" fill="#011E41"/>
<path d="M14.0187 8.15139C13.8313 7.27359 13.4006 6.47112 12.7729 5.83062C11.9026 4.94232 10.7385 4.43929 9.49512 4.41395L9.52942 2.73438C11.2149 2.76854 12.7928 3.45062 13.9727 4.65475C14.8237 5.52304 15.4077 6.61084 15.6617 7.80069L14.0187 8.15139Z" fill="#011E41"/>
<path d="M15.3956 11.5283L13.8174 10.9523C13.996 10.4629 14.0919 9.95049 14.1026 9.42969L15.7823 9.46385C15.7679 10.1701 15.6377 10.8647 15.3956 11.5283Z" fill="#011E41"/>
</svg>
