<svg width="20" height="20" viewBox="0 0 20 20" fill="none" xmlns="http://www.w3.org/2000/svg">
<path d="M2.1659 12.8015L2.1661 12.8017L7.19849 17.8341L2.1659 12.8015ZM2.1659 12.8015C1.92797 12.5643 1.79688 12.2486 1.79688 11.9089C1.79688 11.5724 1.92776 11.2566 2.16609 11.0183L2.1661 11.0183M2.1659 12.8015L2.1661 11.0183M2.1661 11.0183L10.6619 2.52239L2.1661 11.0183ZM18.2024 7.60266V7.58907V2.74369C18.2024 2.2224 17.7779 1.79786 17.2566 1.79786H12.4113C11.7502 1.79786 11.1303 2.05478 10.6621 2.52228L18.2024 7.60266ZM18.2024 7.60266C18.1989 8.25884 17.9422 8.8741 17.4788 9.33752L8.98208 17.8342C8.5107 18.3056 7.67408 18.3089 7.1986 17.8342L18.2024 7.60266ZM9.83914 1.69935L9.98055 1.84078L9.83913 1.69936L1.34317 10.1954C0.88548 10.653 0.633008 11.2624 0.633008 11.9119C0.633008 12.5586 0.885584 13.1678 1.34317 13.6254L6.37492 18.6572C6.83261 19.1148 7.44192 19.3673 8.09147 19.3673C8.73812 19.3673 9.34738 19.1147 9.80497 18.6572L18.3009 10.1612C18.9878 9.47435 19.3663 8.56028 19.3663 7.58907V2.74369C19.3663 1.58061 18.4197 0.633984 17.2566 0.633984H12.4113C11.44 0.633984 10.526 1.01255 9.83914 1.69935Z" fill="#011E41" stroke="#011E41" stroke-width="0.4"/>
<path d="M14.9997 3.33398C14.081 3.33398 13.333 4.08199 13.333 5.00066C13.333 5.91933 14.081 6.66734 14.9997 6.66734C15.9184 6.66734 16.6664 5.91936 16.6664 5.00066C16.6664 4.08199 15.9184 3.33398 14.9997 3.33398ZM14.9997 6.00067C14.4483 6.00067 13.9997 5.55201 13.9997 5.00066C13.9997 4.44931 14.4483 4.00065 14.9997 4.00065C15.551 4.00065 15.9997 4.44931 15.9997 5.00066C15.9997 5.55201 15.551 6.00067 14.9997 6.00067Z" fill="#011E41"/>
</svg>
