<svg width="152" height="35" viewBox="0 0 152 35" fill="none" xmlns="http://www.w3.org/2000/svg">
<path fill-rule="evenodd" clip-rule="evenodd" d="M56.5576 16.7718V25.8718H59.5277V16.7125V8.61914H56.5576V16.7718Z" fill="#011E41"/>
<path fill-rule="evenodd" clip-rule="evenodd" d="M121.065 16.4724V25.8702H124.037V16.5914V8.61719H121.065V16.4724Z" fill="#011E41"/>
<path fill-rule="evenodd" clip-rule="evenodd" d="M148.984 21.882L147.11 19.2627L149.43 16.103L151.417 13.3965H148.174L145.475 17.1337L142.753 13.3965H139.535L141.381 15.9202L143.842 19.2871L141.262 22.8806L139.114 25.8717H142.307L145.475 21.4654L148.644 25.8717H151.837L148.984 21.882Z" fill="#011E41"/>
<path fill-rule="evenodd" clip-rule="evenodd" d="M5.19119 18.2597C13.0728 18.2597 20.708 24.7525 20.708 32.6424C19.7214 32.8438 18.4771 32.993 17.4231 32.993C9.12869 32.982 2.20328 26.32 1.88971 18.2597H5.19119ZM17.4231 1.87336C18.5362 1.87336 19.7213 2.02168 20.7094 2.2182C20.7094 10.1159 13.0714 16.615 5.18832 16.615L1.89201 16.6104C2.4325 8.51447 9.13156 1.87336 17.4231 1.87336ZM22.3418 2.66316C28.5032 4.68197 32.9551 10.5232 32.972 17.424C32.9889 24.2123 28.6263 30.0398 22.3418 32.1922V2.66316ZM0 34.8603H34.8577V0H0V34.8603Z" fill="#011E41"/>
<path fill-rule="evenodd" clip-rule="evenodd" d="M46.5258 20.4944V18.2971H53.7788V15.4957H46.5246V11.417H54.2413V8.62305H43.5557V14.6284V20.3673C43.5557 23.336 44.8203 25.3668 47.7881 25.7839C47.8478 25.7989 47.9063 25.8098 47.9602 25.8106H48.0147C48.3183 25.8445 48.6292 25.8674 48.9543 25.8674H54.4476V23.0763H48.9789C48.0351 23.0763 46.5258 22.6107 46.5258 20.4944Z" fill="#011E41"/>
<path fill-rule="evenodd" clip-rule="evenodd" d="M64.514 18.2712C64.6382 16.7542 66.1799 15.5361 68.0444 15.5361C69.7849 15.5361 71.2021 16.7794 71.2021 18.2712H64.514ZM68.0444 13C64.2899 13 61.4805 15.586 61.4805 19.6136V19.7131C61.4805 23.6417 64.191 26.1778 68.1193 26.1778C70.0087 26.1778 71.7739 25.6559 73.3902 23.9401L71.6001 22.1996C70.6551 23.1443 69.7353 23.6417 68.2185 23.6417C66.0058 23.6417 64.5387 22.3487 64.4394 20.3595H74.1858C74.2357 19.8623 74.2357 19.3155 74.2357 19.3155C74.2357 15.8095 71.7739 13 68.0444 13Z" fill="#011E41"/>
<path fill-rule="evenodd" clip-rule="evenodd" d="M82.5809 15.6614C83.9238 15.6614 84.9182 16.1585 85.7634 17.029L87.6034 15.1143C86.1615 13.5726 84.4457 12.9512 82.5809 12.9512C78.8015 12.9512 75.7686 15.7606 75.7686 19.5897C75.7686 23.419 78.8015 26.2285 82.5809 26.2285C84.4457 26.2285 86.1615 25.6068 87.6034 24.0654L85.7634 22.1507C84.9182 23.0208 83.9238 23.5183 82.5809 23.5183C80.3929 23.5183 78.7269 21.8524 78.7269 19.5897C78.7269 17.3273 80.3929 15.6614 82.5809 15.6614Z" fill="#011E41"/>
<path fill-rule="evenodd" clip-rule="evenodd" d="M92.4232 20.4971L92.4195 20.4968V16.0923H95.1214V13.3938H92.4235V8.61719H89.4531V14.8056V20.6724L89.4614 20.6718C89.5464 23.4744 90.8204 25.3839 93.6855 25.7867C93.7452 25.8016 93.8037 25.8125 93.8577 25.8134H93.9122C94.216 25.8472 94.5267 25.8702 94.8517 25.8702H95.1659L95.177 23.0791H94.8764C93.9325 23.0791 92.4232 22.6135 92.4232 20.4971Z" fill="#011E41"/>
<path fill-rule="evenodd" clip-rule="evenodd" d="M100.566 15.251V13.3957H97.6201V19.5095V25.8712H100.566V19.3113C100.566 17.2569 101.878 15.9697 103.932 15.9697C104.402 15.9697 104.824 16.0187 105.17 16.0936V13.2222C105.046 13.1975 104.601 13.1484 104.28 13.1484C102.496 13.1484 101.16 13.9652 100.566 15.251Z" fill="#011E41"/>
<path fill-rule="evenodd" clip-rule="evenodd" d="M112.433 23.5438C110.23 23.5438 108.572 21.8351 108.572 19.6324C108.572 17.4286 110.23 15.7213 112.433 15.7213C114.611 15.7213 116.294 17.4286 116.294 19.6324C116.294 21.8351 114.611 23.5438 112.433 23.5438ZM112.433 13.0234C108.645 13.0234 105.625 15.894 105.625 19.6324C105.625 23.3688 108.645 26.2414 112.433 26.2414C116.194 26.2414 119.24 23.3688 119.24 19.6324C119.24 15.894 116.194 13.0234 112.433 13.0234Z" fill="#011E41"/>
<path fill-rule="evenodd" clip-rule="evenodd" d="M134.751 20.6467C134.751 22.6265 133.588 23.4691 132.027 23.4691C130.468 23.4691 129.305 22.6265 129.305 20.6725V13.3945H126.31V17.0081V20.9198C126.31 24.4844 128.908 26.1922 132.003 26.1922C135.122 26.1922 137.745 24.46 137.745 20.8452V17.0081V13.3945H134.751V20.6467Z" fill="#011E41"/>
</svg>
