<svg width="88" height="88" viewBox="0 0 88 88" fill="none" xmlns="http://www.w3.org/2000/svg">
<path d="M44.3905 65.8173L44.932 66.9439H44.932L44.3905 65.8173ZM43.6089 65.8173L43.0673 66.9439H43.0673L43.6089 65.8173ZM68.4164 33.0007C68.4164 42.4786 63.1761 49.9881 57.3839 55.3907C51.5993 60.7863 45.4074 63.9415 43.8489 64.6907L44.932 66.9439C46.5952 66.1444 53.0412 62.8601 59.0891 57.2189C65.1295 51.5848 70.9164 43.4603 70.9164 33.0007H68.4164ZM43.9997 8.58398C57.4846 8.58398 68.4164 19.5157 68.4164 33.0007H70.9164C70.9164 18.135 58.8653 6.08398 43.9997 6.08398V8.58398ZM19.583 33.0007C19.583 19.5157 30.5147 8.58398 43.9997 8.58398V6.08398C29.134 6.08398 17.083 18.135 17.083 33.0007H19.583ZM44.1505 64.6907C42.592 63.9415 36.4001 60.7863 30.6154 55.3907C24.8233 49.9881 19.583 42.4786 19.583 33.0007H17.083C17.083 43.4603 22.8699 51.5848 28.9102 57.2189C34.9581 62.8601 41.4042 66.1444 43.0673 66.9439L44.1505 64.6907ZM43.8489 64.6907C43.8768 64.6773 43.9298 64.6599 43.9997 64.6599C44.0696 64.6599 44.1226 64.6773 44.1505 64.6907L43.0673 66.9439C43.6664 67.2319 44.333 67.2319 44.932 66.9439L43.8489 64.6907ZM53.7501 33.0004C53.7501 38.3852 49.3849 42.7504 44.0001 42.7504V45.2504C50.7656 45.2504 56.2501 39.7659 56.2501 33.0004H53.7501ZM44.0001 23.2504C49.3849 23.2504 53.7501 27.6157 53.7501 33.0004H56.2501C56.2501 26.2349 50.7656 20.7504 44.0001 20.7504V23.2504ZM34.2501 33.0004C34.2501 27.6157 38.6153 23.2504 44.0001 23.2504V20.7504C37.2346 20.7504 31.7501 26.2349 31.7501 33.0004H34.2501ZM44.0001 42.7504C38.6153 42.7504 34.2501 38.3852 34.2501 33.0004H31.7501C31.7501 39.7659 37.2346 45.2504 44.0001 45.2504V42.7504Z" fill="#011E41"/>
<path d="M72.5788 64.166C75.4752 65.8382 77 67.7351 77 69.666C77 71.5969 75.4752 73.4938 72.5788 75.166C69.6825 76.8382 65.5166 78.2268 60.5 79.1923C55.4834 80.1577 49.7927 80.666 44 80.666C38.2073 80.666 32.5166 80.1577 27.5 79.1923C22.4834 78.2268 18.3175 76.8382 15.4212 75.166C12.5248 73.4938 11 71.5969 11 69.666C11 67.7351 12.5248 65.8382 15.4212 64.166" stroke="#011E41" stroke-width="2.5" stroke-linecap="round"/>
</svg>
