<svg width="38" height="23" fill="none" xmlns="http://www.w3.org/2000/svg"><path d="M8.055 11.555c0 1.065 1.336 2.046 3.078 2.046 1.943 0 3.31-1.078 3.31-2.62 0-1.116-.806-2.033-1.877-2.136v-.11c.89-.129 1.607-1.007 1.607-1.962 0-1.374-1.252-2.336-3.033-2.336-1.685 0-2.943.949-2.943 1.981 0 .42.297.71.71.71.303 0 .529-.135.722-.458.342-.58.84-.878 1.478-.878.82 0 1.388.484 1.388 1.194s-.581 1.226-1.375 1.226h-.6a.653.653 0 00-.671.678c0 .4.284.69.671.69h.633c.948 0 1.587.543 1.587 1.343 0 .8-.626 1.323-1.594 1.323-.723 0-1.297-.316-1.672-.91-.238-.348-.451-.484-.735-.484-.394 0-.684.297-.684.703zM15.444 9.155c0 1.361.265 2.44.794 3.181.58.826 1.484 1.265 2.607 1.265 1.91 0 3.195-1.232 3.195-3.072 0-1.684-1.136-2.852-2.756-2.852-.968 0-1.84.522-2.142 1.29h-.058c.012-2.045.67-3.143 1.93-3.143.496 0 .896.168 1.341.55.304.238.485.315.723.315.4 0 .678-.264.678-.652 0-.342-.271-.742-.723-1.045-.529-.349-1.245-.549-2.013-.549-2.291 0-3.576 1.691-3.576 4.712zm1.846 1.432c0-.942.645-1.607 1.549-1.607.923 0 1.542.646 1.542 1.614 0 .98-.613 1.633-1.516 1.633-.917 0-1.575-.678-1.575-1.64zM22.956 9.226c0 2.659 1.246 4.375 3.337 4.375s3.369-1.736 3.369-4.375v-.413c0-2.666-1.24-4.376-3.343-4.376-2.098 0-3.363 1.73-3.363 4.376v.413zm1.743-.407c0-1.859.607-2.962 1.607-2.962s1.607 1.11 1.607 2.962v.394c0 1.858-.607 2.968-1.607 2.968s-1.607-1.11-1.607-2.968v-.394zM30.706.75c-1.13 0-1.891.703-1.891 1.787v.368c0 1.149.729 1.8 1.89 1.8 1.143 0 1.872-.651 1.872-1.806v-.362c0-1.11-.755-1.788-1.871-1.788zm-.007.845c.484 0 .742.368.742.942v.374c0 .588-.251.95-.742.95-.497 0-.748-.369-.748-.95v-.374c0-.574.264-.942.748-.942z" fill="#011E41"/><path fill-rule="evenodd" clip-rule="evenodd" d="M32.836 9.216a.826.826 0 011.095-.408c1.178.54 2.172 1.167 2.882 1.885.713.72 1.187 1.583 1.187 2.56 0 1.21-.72 2.236-1.736 3.054-1.023.824-2.453 1.53-4.147 2.107-3.395 1.157-8.033 1.858-13.117 1.858a.826.826 0 110-1.652c4.953 0 9.402-.685 12.584-1.77 1.596-.543 2.827-1.172 3.643-1.83.824-.663 1.12-1.265 1.12-1.766 0-.408-.192-.877-.709-1.399-.52-.526-1.32-1.053-2.395-1.545a.826.826 0 01-.407-1.094zm-27.917.098a.826.826 0 01-.388 1.102c-1.001.48-1.743.99-2.223 1.495-.477.5-.656.95-.656 1.343 0 .448.236.976.88 1.562.645.585 1.628 1.16 2.926 1.68 2.154.864 5.059 1.527 8.404 1.869l-1.449-1.58a.826.826 0 011.218-1.117l2.87 3.13a.826.826 0 01-.116 1.22l-3.108 2.32a.826.826 0 11-.988-1.325l1.354-1.01c-3.438-.355-6.48-1.044-8.8-1.973-1.399-.56-2.578-1.225-3.422-1.992-.843-.766-1.42-1.704-1.42-2.784 0-.942.44-1.778 1.11-2.482.667-.7 1.6-1.315 2.706-1.845a.826.826 0 011.102.387z" fill="#011E41"/></svg>