<svg width="70" height="40" fill="none" xmlns="http://www.w3.org/2000/svg"><path d="M15.125 19.625c0 1.934 2.426 3.715 5.59 3.715 3.527 0 6.012-1.957 6.012-4.758 0-2.027-1.465-3.691-3.41-3.879v-.2c1.617-.233 2.917-1.827 2.917-3.562 0-2.496-2.273-4.242-5.507-4.242-3.059 0-5.344 1.723-5.344 3.598 0 .762.539 1.289 1.289 1.289.55 0 .96-.246 1.312-.832.621-1.055 1.524-1.594 2.684-1.594 1.488 0 2.52.88 2.52 2.168 0 1.29-1.055 2.227-2.497 2.227h-1.09c-.714 0-1.218.527-1.218 1.23 0 .727.515 1.254 1.219 1.254h1.148c1.723 0 2.883.984 2.883 2.438 0 1.453-1.137 2.402-2.895 2.402-1.312 0-2.355-.574-3.035-1.652-.433-.633-.82-.88-1.336-.88-.715 0-1.242.54-1.242 1.278zM28.543 15.266c0 2.472.48 4.43 1.441 5.777 1.055 1.5 2.696 2.297 4.735 2.297 3.468 0 5.8-2.238 5.8-5.578 0-3.059-2.062-5.18-5.003-5.18-1.758 0-3.34.95-3.891 2.344h-.105c.023-3.715 1.218-5.707 3.503-5.707.903 0 1.63.304 2.438.996.55.433.879.574 1.312.574.727 0 1.23-.48 1.23-1.184 0-.62-.491-1.347-1.312-1.898-.96-.633-2.261-.996-3.656-.996-4.16 0-6.492 3.07-6.492 8.555zm3.352 2.601c0-1.71 1.171-2.918 2.812-2.918 1.676 0 2.8 1.172 2.8 2.93 0 1.781-1.112 2.965-2.753 2.965-1.664 0-2.86-1.23-2.86-2.977zM42.184 15.395c0 4.828 2.261 7.945 6.058 7.945 3.797 0 6.117-3.152 6.117-7.945v-.75c0-4.84-2.25-7.946-6.07-7.946-3.809 0-6.105 3.14-6.105 7.946v.75zm3.164-.739c0-3.375 1.101-5.379 2.918-5.379 1.816 0 2.918 2.016 2.918 5.38v.714c0 3.375-1.102 5.39-2.918 5.39-1.817 0-2.918-2.015-2.918-5.39v-.715zM56.254.004c-2.05 0-3.434 1.277-3.434 3.246v.668c0 2.086 1.325 3.27 3.434 3.27 2.074 0 3.398-1.184 3.398-3.282V3.25c0-2.016-1.37-3.246-3.398-3.246zm-.012 1.535c.88 0 1.348.668 1.348 1.711v.68c0 1.066-.457 1.722-1.348 1.722-.902 0-1.36-.668-1.36-1.722v-.68c0-1.043.481-1.71 1.36-1.71z" fill="#fff"/><path fill-rule="evenodd" clip-rule="evenodd" d="M60.123 15.376a1.5 1.5 0 011.988-.74c2.14.98 3.944 2.12 5.233 3.422 1.295 1.309 2.156 2.875 2.156 4.65 0 2.195-1.308 4.06-3.152 5.545-1.858 1.496-4.454 2.778-7.53 3.826-6.165 2.1-14.586 3.373-23.818 3.373a1.5 1.5 0 010-3c8.993 0 17.072-1.244 22.85-3.213 2.897-.987 5.134-2.129 6.616-3.322 1.495-1.205 2.034-2.299 2.034-3.209 0-.74-.35-1.59-1.288-2.54-.945-.954-2.398-1.911-4.35-2.804a1.5 1.5 0 01-.74-1.988zm-50.692.179a1.5 1.5 0 01-.703 2c-1.819.873-3.165 1.798-4.038 2.715-.865.909-1.19 1.724-1.19 2.438 0 .815.428 1.772 1.598 2.836 1.17 1.064 2.955 2.108 5.311 3.052 3.913 1.568 9.187 2.773 15.261 3.393l-2.63-2.87a1.5 1.5 0 012.21-2.027l5.21 5.683a1.5 1.5 0 01-.208 2.215l-5.644 4.212a1.5 1.5 0 11-1.794-2.404l2.458-1.834c-6.241-.644-11.766-1.895-15.978-3.583-2.54-1.018-4.682-2.225-6.213-3.617C1.55 26.372.5 24.67.5 22.708c0-1.71.8-3.229 2.018-4.507 1.21-1.271 2.903-2.386 4.912-3.35a1.5 1.5 0 012.001.704z" fill="#fff"/></svg>