<svg width="462" height="95" fill="none" xmlns="http://www.w3.org/2000/svg"><path d="M402.55 0l-.09.436C439.31 9.328 460 21.798 460 33.446c0 12.539-24.27 24.96-66.58 34.08C350.05 76.862 292.37 82.017 231 82.017c-61.37 0-119.05-5.145-162.42-14.493C26.27 58.405 2 45.975 2 33.445 2 21.798 22.8 9.794 59.64.902c-.07-.238 0 0-.06-.238-.1-.406.01.169-.05-.238C21.17 9.665 0 20.638 0 33.446c0 13.758 24.2 26.546 68.15 36.012C111.66 78.835 169.5 84 231 84s119.34-5.165 162.85-14.542C437.8 59.982 462 47.194 462 33.445 462 20.638 440.91 9.24 402.55 0z" fill="#000"/><circle cx="231" cy="83" r="12" fill="#011E41"/><path d="M238.5 82.134a1 1 0 010 1.732l-4.499 2.597a1 1 0 01-1.5-.866v-5.195a1 1 0 011.5-.866l4.499 2.598zM223.5 83.867a1 1 0 010-1.732l4.499-2.598a1 1 0 011.5.866v5.195a1 1 0 01-1.5.867l-4.499-2.598z" fill="#fff"/><defs><linearGradient id="paint0_linear" x1="231" y1="83.995" x2="231" y2="0" gradientUnits="userSpaceOnUse"><stop offset=".001" stop-color="#081F40"/><stop offset=".089" stop-color="#0F2646"/><stop offset=".222" stop-color="#243856"/><stop offset=".384" stop-color="#465770"/><stop offset=".567" stop-color="#758194"/><stop offset=".768" stop-color="#B1B8C2"/><stop offset=".982" stop-color="#F9F9FA"/><stop offset="1" stop-color="#fff"/></linearGradient></defs></svg>