<svg width="24" height="26" fill="none" xmlns="http://www.w3.org/2000/svg"><path fill-rule="evenodd" clip-rule="evenodd" d="M20.357 17.627h.195c.666 0 1.291.26 1.762.735.47.474.73 1.105.73 1.775a2.504 2.504 0 01-2.492 2.51h-4.733a3.687 3.687 0 01-1.206 1.616 3.58 3.58 0 01-2.185.737 3.581 3.581 0 01-2.185-.737 3.687 3.687 0 01-1.205-1.615H4.304a2.504 2.504 0 01-2.492-2.51 2.504 2.504 0 012.492-2.511H4.5v-5.41c0-1.911.68-3.76 1.917-5.207a7.932 7.932 0 014.148-2.558 2.243 2.243 0 01-.356-1.215c0-1.234.996-2.237 2.22-2.237a2.231 2.231 0 012.22 2.237c0 .436-.125.857-.355 1.215 1.349.326 3.097 1.478 4.546 3.056a.407.407 0 01.074.111 7.965 7.965 0 011.444 4.598v5.41zm-2.103-9.735C17 6.412 14.984 5.25 13.58 5.024a.353.353 0 01-.17-.616c.344-.291.54-.719.54-1.171a1.53 1.53 0 00-1.522-1.534 1.53 1.53 0 00-1.522 1.534c0 .452.197.88.54 1.172a.353.353 0 01-.17.615A7.222 7.222 0 006.946 7.47a7.314 7.314 0 00-1.748 4.748v5.41H19.66v-5.41a7.264 7.264 0 00-1.373-4.27.357.357 0 01-.032-.055zM6.75 21.945h13.802c.99 0 1.794-.811 1.794-1.808a1.802 1.802 0 00-1.794-1.807H4.304c-.989 0-1.794.81-1.794 1.807a1.802 1.802 0 001.794 1.808H6.75zm3.049.703a2.952 2.952 0 002.63 1.649 2.951 2.951 0 002.63-1.65h-5.26z" fill="#011E41"/><path d="M20.357 17.627h-.15v.15h.15v-.15zm1.957.735l-.107.106.107-.106zm-6.495 4.286v-.15h-.104l-.037.096.14.054zm-1.206 1.615l.091.12-.09-.12zm-4.37 0l-.091.12.09-.12zm-1.205-1.615l.14-.053-.037-.097h-.103v.15zm-6.496-.735l-.106.105.106-.105zM4.5 17.627v.15h.15v-.15H4.5zM6.416 7.01l-.114-.098.114.098zm4.148-2.558l.035.146.205-.05-.114-.177-.126.081zm3.729 0l-.126-.082-.114.178.204.05.036-.146zm4.546 3.056l.11-.102-.11.102zm.074.111l-.138.06.006.014.009.013.123-.087zM13.58 5.024l.024-.148-.024.148zm4.674 2.868l.136-.065-.009-.018-.013-.015-.114.098zm-4.956-3.12l.145-.04-.144.04zm.112-.363l-.097-.115.097.115zm-1.963 0l-.098.114.098-.114zm.11.362l.146.04-.145-.04zm-.28.253l.024.149-.024-.149zM6.945 7.47L6.83 7.37l.114.098zM5.197 17.627h-.15v.15h.15v-.15zm14.462 0v.15h.15v-.15h-.15zm-1.373-9.68l.122-.089-.122.088zm3.534 10.912l.107-.106-.107.106zM3.036 21.415l-.107.106.107-.106zm6.763 1.233v-.15h-.241l.106.216.135-.066zm5.26 0l.134.066.107-.216h-.241v.15zm5.493-5.171h-.195v.3h.195v-.3zm1.868.78a2.616 2.616 0 00-1.868-.78v.3c.625 0 1.213.245 1.655.69l.213-.21zm.774 1.88c0-.71-.275-1.378-.774-1.88l-.213.21c.443.447.687 1.039.687 1.67h.3zm-2.642 2.66c1.458 0 2.642-1.194 2.642-2.66h-.3a2.354 2.354 0 01-2.342 2.36v.3zm-4.733 0h4.733v-.3h-4.733v.3zm-1.115 1.585a3.836 3.836 0 001.255-1.68l-.28-.108a3.537 3.537 0 01-1.156 1.55l.181.239zm-2.276.768a3.73 3.73 0 002.276-.767l-.181-.24a3.43 3.43 0 01-2.095.707v.3zm-2.276-.767c.66.501 1.447.767 2.276.767v-.3a3.431 3.431 0 01-2.094-.706l-.182.239zM8.897 22.7c.252.662.69 1.252 1.255 1.682l.182-.24a3.536 3.536 0 01-1.156-1.549l-.28.107zm-1.532.097h1.673v-.3H7.365v.3zm-.615 0h.615v-.3H6.75v.3zm-2.446 0H6.75v-.3H4.304v.3zm-1.868-.78c.499.503 1.163.78 1.868.78v-.3a2.316 2.316 0 01-1.655-.691l-.213.211zm-.773-1.88c0 .71.274 1.378.773 1.88l.213-.211a2.354 2.354 0 01-.687-1.67h-.3zm2.641-2.661c-1.458 0-2.642 1.194-2.642 2.66h.3a2.354 2.354 0 012.342-2.36v-.3zm.195 0h-.195v.3H4.5v-.3zm-.15-5.26v5.41h.3v-5.41h-.3zm1.953-5.305a8.17 8.17 0 00-1.953 5.305h.3a7.87 7.87 0 011.88-5.11l-.227-.195zm4.226-2.606a8.082 8.082 0 00-4.226 2.606l.228.195a7.783 7.783 0 014.07-2.51l-.072-.29zm-.47-1.07c0 .467.134.915.38 1.297l.252-.162a2.093 2.093 0 01-.332-1.134h-.3zM12.428.85a2.381 2.381 0 00-2.37 2.387h.3c0-1.152.93-2.087 2.07-2.087v-.3zm2.37 2.387A2.381 2.381 0 0012.429.85v.3c1.14 0 2.07.935 2.07 2.087h.3zm-.38 1.296c.247-.382.38-.83.38-1.296h-.3c0 .408-.117.8-.331 1.133l.252.163zm4.532 2.873c-1.461-1.59-3.234-2.764-4.622-3.1l-.07.291c1.309.317 3.033 1.447 4.47 3.012l.222-.203zm.1.153a.558.558 0 00-.1-.153l-.221.203c.02.022.036.046.046.07l.275-.12zm1.457 4.658c0-1.691-.508-3.308-1.472-4.684l-.245.173a7.816 7.816 0 011.417 4.51h.3zm0 5.41v-5.41h-.3v5.41h.3zM13.556 5.173c.677.109 1.513.446 2.34.944.824.497 1.629 1.147 2.244 1.872l.228-.195c-.639-.753-1.47-1.424-2.318-1.934-.846-.51-1.72-.867-2.447-.984l-.047.297zm-.402-.362a.5.5 0 00.402.362l.047-.297a.2.2 0 01-.16-.144l-.29.08zm.159-.517a.503.503 0 00-.16.517l.29-.08a.203.203 0 01.064-.208l-.194-.229zm.488-1.057c0 .409-.178.794-.488 1.057l.194.229c.377-.32.594-.79.594-1.286h-.3zm-1.373-1.384c.756 0 1.373.62 1.373 1.384h.3a1.68 1.68 0 00-1.673-1.684v.3zm-1.372 1.384a1.38 1.38 0 011.372-1.384v-.3a1.68 1.68 0 00-1.672 1.684h.3zm.488 1.057a1.384 1.384 0 01-.488-1.057h-.3c0 .496.216.965.593 1.286l.195-.229zm.159.517a.503.503 0 00-.16-.517l-.193.229c.06.05.084.132.063.209l.29.08zm-.402.362a.5.5 0 00.402-.362l-.29-.08a.2.2 0 01-.16.145l.048.297zM7.059 7.566A7.072 7.072 0 0111.3 5.173l-.048-.297A7.372 7.372 0 006.83 7.371l.228.195zm-1.712 4.65c0-1.707.608-3.358 1.712-4.65l-.228-.195a7.464 7.464 0 00-1.784 4.846h.3zm0 5.41v-5.41h-.3v5.41h.3zm14.312-.15H5.197v.3H19.66v-.3zm-.15-5.26v5.41h.3v-5.41h-.3zm-1.344-4.182a7.114 7.114 0 011.344 4.183h.3a7.413 7.413 0 00-1.4-4.359l-.244.176zm-.046-.078a.51.51 0 00.046.078l.243-.176a.203.203 0 01-.018-.031l-.271.13zM7.365 21.795H6.75v.3h.615v-.3zm13.187 0H7.365v.3h13.187v-.3zm1.644-1.658c0 .915-.739 1.658-1.644 1.658v.3c1.073 0 1.944-.88 1.944-1.958h-.3zm-.482-1.172c.31.313.482.729.482 1.172h.3c0-.522-.202-1.014-.57-1.384l-.212.212zm-1.162-.485c.439 0 .851.172 1.162.485l.213-.212a1.925 1.925 0 00-1.375-.573v.3zm-16.248 0h16.248v-.3H4.304v.3zM2.66 20.137c0-.915.739-1.657 1.644-1.657v-.3c-1.073 0-1.944.879-1.944 1.957h.3zm.482 1.173a1.653 1.653 0 01-.482-1.173h-.3c0 .523.203 1.014.57 1.384l.212-.211zm1.162.485c-.439 0-.85-.172-1.162-.485l-.212.211c.366.37.855.574 1.374.574v-.3zm2.446 0H4.304v.3H6.75v-.3zm5.679 2.352a2.802 2.802 0 01-2.496-1.565l-.269.132a3.102 3.102 0 002.765 1.733v-.3zm2.495-1.565a2.801 2.801 0 01-2.495 1.565v.3c1.18 0 2.253-.693 2.764-1.733l-.269-.132zm-5.125.216h5.26v-.3h-5.26v.3z" fill="#011E41"/></svg>