<svg width="57" height="57" xmlns="http://www.w3.org/2000/svg"><g transform="translate(1 1)" fill-rule="nonzero" stroke="#011E41" stroke-width="2" fill="none"><circle fill="#FFF" cx="27.5" cy="27.5" r="27.5"/><path d="M19.41 14c.718 0 1.398.297 1.976.862.382.352.77.744 1.14 1.124.191.196.377.386.573.582h0l1.674 1.667c.612.604.932 1.304.932 2.014 0 .71-.326 1.41-.932 2.014-.174.174-.348.347-.517.52-.477.487-.971.985-1.5 1.46.377.868.916 1.718 1.72 2.731 1.588 1.941 3.25 3.452 5.082 4.61.185.118.393.224.617.336.18.09.371.184.556.29h0l2.01-2.002c.59-.588 1.281-.9 2-.9.719 0 1.404.312 1.977.905h0l3.375 3.363c1.207 1.203 1.207 2.78.011 4.022-.258.269-.528.532-.792.784-.387.375-.758.727-1.083 1.119-.006.01-.017.022-.023.028-.915.99-2.038 1.471-3.437 1.471-.129 0-.253-.006-.382-.011-2.083-.134-3.953-.918-5.352-1.578-3.672-1.773-6.89-4.28-9.564-7.463-2.201-2.635-3.684-5.103-4.666-7.76-.64-1.718-.888-3.139-.781-4.476a4.292 4.292 0 011.286-2.752h0l2.1-2.093c.601-.57 1.286-.867 2-.867z"/></g></svg>