<svg width="24" height="24" xmlns="http://www.w3.org/2000/svg"><path d="M4.345 0H0v1.407h2.938v15.89l-.166.04a3.277 3.277 0 00-2.358 3.146c0 1.82 1.49 3.269 3.269 3.269a3.29 3.29 0 003.145-2.318l.041-.165h6.993l.041.165a3.29 3.29 0 003.145 2.318c1.821 0 3.27-1.49 3.27-3.27 0-1.779-1.49-3.268-3.27-3.268a3.316 3.316 0 00-3.186 2.483l-.041.165H6.91l-.042-.165a3.263 3.263 0 00-2.317-2.36l-.166-.04v-.745l19.324-2.607.042-7.366L4.345 3.31V0zm12.703 18.62c1.035 0 1.862.828 1.862 1.863a1.854 1.854 0 01-1.862 1.862 1.854 1.854 0 01-1.862-1.862c0-1.035.87-1.862 1.862-1.862zM5.545 20.525a1.854 1.854 0 01-1.862 1.862 1.854 1.854 0 01-1.862-1.862c0-1.034.827-1.862 1.862-1.862 1.034-.041 1.862.828 1.862 1.862zM22.303 7.738l-.04 4.965-17.918 2.442V4.8l17.958 2.938z" fill="#011E41" fill-rule="nonzero"/></svg>