<svg width="24" height="24" xmlns="http://www.w3.org/2000/svg"><path d="M5.489 15.642a23.369 23.369 0 007.773 6.09c1.136.538 2.656 1.177 4.35 1.286.104.005.205.01.31.01 1.136 0 2.05-.393 2.793-1.201.005-.005.014-.014.018-.023.265-.32.566-.607.881-.913.215-.205.434-.42.644-.639.972-1.013.972-2.3-.01-3.281l-2.742-2.744c-.466-.483-1.023-.739-1.607-.739-.584 0-1.146.256-1.625.735l-1.634 1.634a8.684 8.684 0 00-.452-.237 5.644 5.644 0 01-.502-.274c-1.488-.945-2.839-2.178-4.13-3.761-.653-.826-1.092-1.52-1.397-2.228.429-.388.83-.794 1.218-1.191.137-.142.279-.283.42-.425.493-.492.758-1.063.758-1.643 0-.58-.26-1.15-.758-1.643l-1.36-1.36c-.16-.16-.31-.315-.466-.475-.3-.31-.616-.63-.926-.917C6.575 1.242 6.023 1 5.438 1c-.58 0-1.136.242-1.625.707L2.106 3.415A3.507 3.507 0 001.061 5.66c-.087 1.091.114 2.25.635 3.652.798 2.168 2.003 4.18 3.793 6.33zM2.175 5.756A2.414 2.414 0 012.9 4.204l1.697-1.698c.265-.255.557-.388.84-.388.279 0 .562.133.822.397.306.283.593.58.904.895.155.16.315.32.474.484l1.36 1.36c.283.283.43.57.43.853 0 .283-.147.571-.43.854-.141.141-.283.288-.424.429-.425.43-.822.835-1.26 1.223l-.023.023c-.378.379-.32.74-.228 1.013.005.014.01.023.014.037.351.844.84 1.648 1.602 2.606 1.37 1.689 2.812 2.999 4.4 4.008.196.127.406.228.602.328.183.092.352.178.503.274.018.01.031.018.05.027.15.078.296.115.442.115.366 0 .603-.233.68-.31l1.708-1.708c.264-.265.552-.406.835-.406.347 0 .63.214.808.406l2.752 2.748c.548.548.543 1.14-.014 1.72-.191.206-.392.402-.607.608-.32.31-.652.63-.954.99-.525.566-1.15.83-1.958.83-.077 0-.16-.004-.237-.008-1.497-.096-2.89-.68-3.935-1.178a22.2 22.2 0 01-7.398-5.797C4.653 12.89 3.508 10.982 2.75 8.937c-.47-1.255-.648-2.264-.575-3.181z" fill="#011E41" fill-rule="nonzero" stroke="#011E41" stroke-width=".8"/></svg>