<svg width="19" height="20" xmlns="http://www.w3.org/2000/svg"><g fill="#011E41" fill-rule="nonzero" stroke="#011E41" stroke-width=".5"><path d="M17.453 4.052h-4.789v-2.58a.435.435 0 00-.422-.422h-5.56a.435.435 0 00-.421.422v2.58H1.422A.418.418 0 001 4.474c0 .224.199.422.422.422h1.265v13.5c0 .223.199.422.422.422h12.657a.435.435 0 00.421-.422v-13.5h1.266a.435.435 0 00.422-.422.418.418 0 00-.422-.422zM7.105 1.893h4.715v2.16H7.105v-2.16zm8.239 16.081H3.53V4.896H15.32l.025 13.078h0z"/><path d="M9.413 8.718a.435.435 0 00-.422.422v6.75c0 .223.198.422.422.422a.435.435 0 00.422-.422V9.14a.404.404 0 00-.422-.422zM6.484 8.718a.435.435 0 00-.421.422v6.75c0 .223.198.422.421.422a.435.435 0 00.422-.422V9.14a.418.418 0 00-.422-.422zM12.39 8.718a.435.435 0 00-.421.422v6.675c0 .224.198.422.422.422a.435.435 0 00.421-.422V9.14a.404.404 0 00-.421-.422z"/></g></svg>