<svg width="24" height="17" xmlns="http://www.w3.org/2000/svg"><g transform="translate(.377 .643)" fill="#011E41" fill-rule="nonzero" stroke="#011E41" stroke-width=".3"><path d="M10.771 6.71c.81.785 2.123.786 2.934 0 .81-.787.81-2.059 0-2.845a2.119 2.119 0 00-2.934 0 1.967 1.967 0 000 2.844zm2.155-1.423a.678.678 0 01-.688.668c-.608 0-.921-.718-.487-1.14.43-.416 1.175-.124 1.175.472zM8.73 10.7c0-1.111-.928-2.011-2.074-2.011-1.848 0-2.762 2.177-1.467 3.433 1.313 1.274 3.541.351 3.541-1.422zm-2.56.472a.654.654 0 010-.944.703.703 0 01.973 0c.269.261.269.683 0 .944a.703.703 0 01-.974 0zM12.645 11.095a.658.658 0 000-.95L7.291 4.953c-.438-.425-1.183-.118-1.183.475a.66.66 0 00.203.475l5.354 5.192c.27.262.71.262.98 0z"/><path d="M18.483 14.386l3.6-4.783c.72-.956.72-2.241.002-3.198l-3.602-4.8A3.15 3.15 0 0015.97.365h-12C2.133.365.636 1.815.636 3.599v8.79c0 1.783 1.497 3.234 3.336 3.234h12.001a3.15 3.15 0 002.51-1.237zM3.97 14.279c-1.075 0-1.95-.848-1.95-1.89v-8.79c0-1.043.875-1.89 1.95-1.89h12c.548 0 1.069.256 1.391.687l3.603 4.8c.359.479.365 1.127-.002 1.614l-3.6 4.784c-.323.429-.843.685-1.39.685H3.97z"/><circle transform="rotate(90 18.651 8.024)" cx="18.651" cy="8.024" r="1"/></g></svg>