<svg width="16" height="15" xmlns="http://www.w3.org/2000/svg"><path d="M5.883 12.125l2.46-.273 7.192-7.192c.31-.31.465-.688.465-1.135 0-.446-.155-.824-.465-1.134L14.36 1.215A1.544 1.544 0 0013.225.75c-.447 0-.825.155-1.135.465L4.898 8.406l-.273 2.461c-.036.365.073.675.328.93s.565.364.93.328zm7.875-7.547l-1.586-1.586.848-.847a.278.278 0 01.205-.082c.082 0 .15.027.205.082l1.175 1.175a.278.278 0 01.082.205c0 .082-.027.15-.082.205l-.847.848zm-2.57 10.172c.364 0 .674-.128.93-.383.254-.255.382-.565.382-.93V9.473c0-.11-.046-.183-.137-.22-.09-.036-.173-.017-.246.056l-.875.875a.185.185 0 00-.055.136v3.117H1.562V3.813H8.18c.054 0 .1-.019.136-.055l.875-.875c.073-.073.092-.155.055-.246-.036-.091-.1-.137-.191-.137H1.562c-.364 0-.674.128-.93.383a1.266 1.266 0 00-.382.93v9.624c0 .365.128.675.383.93s.565.383.93.383h9.624zm-5.223-3.965l.191-1.777 5.086-5.086 1.586 1.586-5.086 5.086-1.777.191z" fill="#011E41" fill-rule="nonzero"/></svg>