<svg width="26" height="26" xmlns="http://www.w3.org/2000/svg"><g fill-rule="nonzero" stroke="#011E41" fill="none"><path d="M23.923 6.24a2.892 2.892 0 00-3.292-.502V3.752c-.002-1.52-1.267-2.75-2.829-2.752H3.828C2.267 1.002 1.002 2.233 1 3.752v18.496c.002 1.52 1.267 2.75 2.828 2.752h13.974c1.562-.002 2.827-1.233 2.829-2.752v-8.43l3.54-3.445a2.7 2.7 0 000-3.892l-.248-.242zm-12.46 10.345l2.06 2.023-2.804.724.744-2.747zm3.152 1.531l-2.648-2.6 7.643-7.417 2.649 2.578-7.644 7.439zm4.884 4.132c0 .911-.76 1.65-1.697 1.651H3.828c-.937-.001-1.696-.74-1.697-1.651V3.752c.001-.911.76-1.65 1.697-1.651h13.974c.937.001 1.696.74 1.697 1.651v2.9l-8.73 8.471a.546.546 0 00-.147.25l-1.244 4.594a.54.54 0 00.147.53c.142.138.35.192.545.142l4.688-1.21a.568.568 0 00.255-.143L19.5 14.92v7.328zm3.873-12.654l-.313.305-2.648-2.577.315-.306a1.733 1.733 0 012.398.002l.248.241c.661.645.661 1.69 0 2.335h0z" stroke-width=".2" fill="#011E41"/><path stroke-linecap="round" d="M5.28 7.729h9.753"/><path fill="#011E41" stroke-linecap="round" d="M5.28 11.729h5.753"/></g></svg>