<svg width="24" height="23" xmlns="http://www.w3.org/2000/svg"><path d="M20.75 7.048h-3.955a4.87 4.87 0 00.697-.567 2.681 2.681 0 000-3.73c-.978-1-2.686-1.002-3.666 0-.541.55-1.98 2.797-1.781 4.297h-.09c.197-1.5-1.24-3.746-1.781-4.298-.98-1-2.688-1-3.666 0a2.682 2.682 0 00-.002 3.731c.171.176.415.37.699.567H3.25c-.689 0-1.25.57-1.25 1.269v3.17c0 .35.28.635.625.635h.625v7.61C3.25 20.43 3.811 21 4.5 21h15c.689 0 1.25-.57 1.25-1.268v-7.61h.625a.63.63 0 00.625-.634V8.317c0-.7-.561-1.269-1.25-1.269zM7.394 3.644a1.318 1.318 0 011.893 0c.843.86 1.68 3.057 1.39 3.363 0 0-.053.041-.232.041-.864 0-2.513-.91-3.051-1.46a1.398 1.398 0 010-1.944zm3.981 16.088H4.5v-7.61h6.875v7.61zm0-8.879H3.25V8.317h8.125v2.536zm3.338-7.209a1.353 1.353 0 011.893 0 1.398 1.398 0 010 1.943c-.539.55-2.187 1.461-3.051 1.461-.179 0-.231-.04-.232-.041-.29-.306.547-2.503 1.39-3.363zM19.5 19.732h-6.875v-7.61H19.5v7.61zm1.25-8.879h-8.125V8.317h8.125v2.536z" fill="#fff" fill-rule="nonzero"/></svg>