<svg width="16" height="16" fill="none" xmlns="http://www.w3.org/2000/svg"><path fill-rule="evenodd" clip-rule="evenodd" d="M15 4.039h-3.164c.227-.158.422-.314.558-.454a2.145 2.145 0 000-2.985c-.783-.8-2.149-.8-2.933 0-.433.441-1.584 2.238-1.425 3.439h-.072C8.122 2.839 6.972 1.04 6.539.6c-.784-.8-2.15-.8-2.933 0a2.146 2.146 0 00-.001 2.985c.137.14.332.296.559.454H1c-.551 0-1 .455-1 1.014V7.59c0 .28.224.507.5.507H1v6.088c0 .56.449 1.015 1 1.015h12c.551 0 1-.456 1-1.015V8.097h.5c.276 0 .5-.227.5-.507V5.053a1.01 1.01 0 00-1-1.014zM4.315 1.315a1.054 1.054 0 011.515 0c.674.688 1.344 2.446 1.111 2.69 0 0-.042.034-.185.034-.691 0-2.01-.729-2.441-1.17a1.118 1.118 0 010-1.554zM2 14.185h5.5V8.097H2v6.088zm5.5-7.102H1v-2.03h6.5v2.03zm4.185-5.768a1.082 1.082 0 00-1.515 0c-.674.688-1.344 2.446-1.112 2.69.001.001.043.034.186.034.691 0 2.01-.729 2.441-1.17a1.118 1.118 0 000-1.554zM14 14.185H8.5V8.097H14v6.088zM8.5 7.083H15v-2.03H8.5v2.03z" fill="#011E41"/></svg>