<svg width="26" height="24" xmlns="http://www.w3.org/2000/svg"><g fill="none" fill-rule="evenodd"><path d="M1 0h24v24H1z"/><path d="M18.75 1C22.196 1 25 4.168 25 8.063c0 1.773-.589 3.466-1.66 4.778a.486.486 0 01-.09.12c-.086.095-.163.17-.241.244h0l-.099.095-9.556 9.554a.499.499 0 01-.707 0h0l-9.25-9.23a.494.494 0 01-.078-.102C1.843 12.167 1 10.187 1 8.062 1 4.169 3.804 1 7.25 1 9.912 1 12.11 3.473 13 4.64 13.89 3.473 16.088 1 18.75 1z" stroke="#7A8A9C" fill="#fff" fill-rule="nonzero"/></g></svg>