<svg width="26" height="24" xmlns="http://www.w3.org/2000/svg"><g fill="none" fill-rule="evenodd"><path d="M18.75 1C16.088 1 13.89 3.473 13 4.64 12.11 3.473 9.912 1 7.25 1 3.804 1 1 4.168 1 8.063c0 2.124.843 4.104 2.32 5.459a.494.494 0 00.078.102l9.249 9.23a.499.499 0 00.707 0L22.91 13.3l.099-.095c.078-.074.155-.149.241-.245a.486.486 0 00.09-.119C24.41 11.53 25 9.836 25 8.063 25 4.168 22.196 1 18.75 1zm3.757 11.279a.465.465 0 00-.037.05c-.047.054-.098.102-.15.15L13 21.793 4.219 13.03a.502.502 0 00-.116-.149C2.766 11.714 2 9.958 2 8.063 2 4.72 4.355 2 7.25 2c2.862 0 5.305 3.733 5.33 3.771.184.285.656.285.84 0C13.445 5.733 15.888 2 18.75 2 21.645 2 24 4.72 24 8.063c0 1.575-.53 3.072-1.493 4.216z" fill="#011E41" fill-rule="nonzero" stroke="#011E41" stroke-width=".25"/><path d="M1 0h24v24H1z"/></g></svg>