<svg width="18" height="18" xmlns="http://www.w3.org/2000/svg" xmlns:xlink="http://www.w3.org/1999/xlink"><defs><path id="a" d="M0 0h18v18H0z"/></defs><g fill="none" fill-rule="evenodd"><mask id="b" fill="#fff"><use xlink:href="#a"/></mask><path d="M9.879 13.307a.879.879 0 11-1.758 0 .879.879 0 011.758 0zm1.934-5.977c0 1.308-.898 2.41-2.11 2.724v1.143a.703.703 0 11-1.406 0V9.44c0-.388.315-.703.703-.703.775 0 1.406-.63 1.406-1.406 0-.775-.63-1.406-1.406-1.406-.775 0-1.406.63-1.406 1.406a.703.703 0 11-1.407 0A2.816 2.816 0 019 4.518a2.816 2.816 0 012.813 2.812zM9 16.594A7.59 7.59 0 011.406 9 7.59 7.59 0 019 1.406 7.59 7.59 0 0116.594 9 7.59 7.59 0 019 16.594zM9 0C4.026 0 0 4.025 0 9c0 4.974 4.025 9 9 9 4.974 0 9-4.025 9-9 0-4.974-4.025-9-9-9z" fill="#011e41" mask="url(#b)"/></g></svg>