<svg width="50" height="50" xmlns="http://www.w3.org/2000/svg"><g fill="#011E41" fill-rule="nonzero"><path d="M39.5 30.96c-1.024-1.065-2.258-1.634-3.566-1.634-1.297 0-2.542.559-3.607 1.624l-3.334 3.323c-.274-.148-.548-.285-.812-.422-.38-.19-.738-.37-1.044-.56-3.123-1.982-5.96-4.567-8.682-7.91-1.318-1.667-2.204-3.07-2.848-4.494.865-.791 1.667-1.614 2.447-2.405.296-.296.591-.602.887-.897 2.215-2.215 2.215-5.084 0-7.3l-2.88-2.88c-.327-.326-.665-.664-.981-1.001a49.806 49.806 0 00-1.983-1.962C12.073 3.429 10.85 2.89 9.563 2.89s-2.532.538-3.587 1.55l-.02.022L2.368 8.08c-1.35 1.35-2.12 2.996-2.29 4.905-.252 3.08.655 5.95 1.351 7.827 1.709 4.61 4.262 8.882 8.07 13.46 4.62 5.517 10.179 9.873 16.53 12.943 2.425 1.15 5.664 2.51 9.282 2.742.221.011.453.022.664.022 2.437 0 4.483-.876 6.087-2.616.01-.022.032-.032.042-.053.549-.665 1.181-1.266 1.846-1.91.454-.432.918-.886 1.371-1.36 1.045-1.087 1.593-2.353 1.593-3.65 0-1.308-.559-2.563-1.624-3.618L39.5 30.96zm3.776 11.108c-.01 0-.01.01 0 0-.411.443-.833.844-1.287 1.287-.686.654-1.382 1.34-2.036 2.11-1.065 1.139-2.32 1.677-3.966 1.677-.158 0-.327 0-.485-.01-3.133-.201-6.045-1.425-8.228-2.469-5.97-2.89-11.213-6.994-15.57-12.194-3.597-4.335-6.002-8.344-7.595-12.648-.98-2.626-1.34-4.673-1.181-6.603.105-1.234.58-2.257 1.456-3.133L7.98 6.488c.516-.485 1.065-.749 1.603-.749.665 0 1.202.4 1.54.738l.032.032a53.259 53.259 0 011.898 1.888c.327.338.665.675 1.003 1.023l2.88 2.88c1.117 1.118 1.117 2.152 0 3.27-.307.306-.602.612-.908.907-.886.908-1.73 1.751-2.648 2.574-.02.021-.042.032-.052.053-.907.907-.739 1.793-.549 2.395l.032.094c.749 1.815 1.804 3.524 3.407 5.56l.01.01c2.912 3.587 5.982 6.382 9.368 8.523.432.275.875.496 1.297.707.38.19.738.37 1.044.56.043.02.085.052.127.073.359.18.696.264 1.044.264.876 0 1.424-.549 1.604-.728l3.607-3.608c.359-.358.929-.79 1.593-.79.654 0 1.192.41 1.52.77l.02.02 5.812 5.812c1.087 1.076 1.087 2.184.01 3.302zM27.01 11.889c2.764.464 5.274 1.772 7.279 3.776a13.446 13.446 0 013.776 7.279 1.415 1.415 0 001.403 1.181c.084 0 .158-.01.243-.021a1.425 1.425 0 001.17-1.646 16.27 16.27 0 00-4.567-8.808 16.27 16.27 0 00-8.808-4.567 1.431 1.431 0 00-1.646 1.16c-.137.77.37 1.52 1.15 1.646zM49.922 22.047c-.94-5.506-3.534-10.517-7.522-14.504C38.413 3.555 33.403.96 27.896.022c-.77-.137-1.498.39-1.635 1.16-.126.78.39 1.509 1.171 1.646 4.916.833 9.399 3.164 12.964 6.719 3.566 3.565 5.886 8.049 6.72 12.964a1.415 1.415 0 001.403 1.182c.084 0 .158-.01.242-.021a1.398 1.398 0 001.16-1.625z"/></g></svg>