<svg width="22" height="23" xmlns="http://www.w3.org/2000/svg"><g transform="translate(1 1)" fill="#FFF" fill-rule="nonzero" stroke="#FFF" stroke-width=".3"><path d="M10 0C4.473 0 0 4.697 0 10.5 0 16.304 4.473 21 10 21s10-4.697 10-10.5C20 4.696 15.527 0 10 0zm0 19.385c-4.677 0-8.462-3.974-8.462-8.885 0-4.91 3.785-8.885 8.462-8.885s8.462 3.974 8.462 8.885c0 4.91-3.785 8.885-8.462 8.885z"/><path d="M10 8.4c-.552 0-1 .446-1 .995v6.41c0 .55.448.995 1 .995s1-.446 1-.995v-6.41a.998.998 0 00-1-.995z"/><ellipse cx="10" cy="6.3" rx="1" ry="1.05"/></g></svg>