<svg width="24" height="24" fill="none" xmlns="http://www.w3.org/2000/svg"><g clip-path="url(#clip0)"><path d="M12 1C5.373 1 0 5.208 0 10.399c0 3.356 2.246 6.301 5.625 7.963-1.678 5.749-2.664 6.123 4.244 1.287.692.097 1.404.148 2.131.148 6.627 0 12-4.208 12-9.399C24 5.208 18.627 1 12 1z" fill="#111"/><path d="M10.384 8.27a.97.97 0 00-1.845-.001c-.984 3.052-2.302 4.935-1.492 5.306 1.078.489 1.101-.611 1.36-1.1h2.11c.257.487.282 1.588 1.36 1.1.812-.371-.49-2.195-1.493-5.305zM8.77 11.257l.692-1.951.691 1.951H8.77zM5.365 13.68c-1.198 0-.49-1.657-.692-4.742-.429-.074-1.76.297-1.76-.673 0-.371.305-.673.68-.673 2.517.18 4.223-.47 4.223.673 0 .987-1.275.59-1.76.673-.2 3.075.505 4.742-.69 4.742zM13.154 13.579c-1.159 0-.454-1.565-.663-5.301 0-.91 1.413-.909 1.413 0v4.04c.67.089 2.135-.33 2.135.63 0 1.007-1.576.503-2.885.631zM19.556 13.38l-1.624-2.137-.24.239v1.5a.69.69 0 01-.693.688c-1.203 0-.482-1.732-.692-5.392A.69.69 0 0117 7.59c1.045 0 .594 1.478.692 2.166 1.96-1.873 1.913-2.072 2.316-2.072.556 0 .897.691.527 1.058l-1.578 1.567 1.704 2.243c.556.725-.555 1.556-1.104.828z" fill="#FFEB3B"/></g><defs><clipPath id="clip0"><path fill="#fff" d="M0 0h24v24H0z"/></clipPath></defs></svg>