<svg width="144" height="33" xmlns="http://www.w3.org/2000/svg"><g fill="#FFF" fill-rule="evenodd"><path d="M4.895 17.247c7.433 0 14.633 6.123 14.633 13.563-.93.19-2.104.33-3.098.33-7.822-.01-14.352-6.292-14.648-13.893h3.113zM16.43 1.795c1.05 0 2.167.14 3.099.325 0 7.448-7.203 13.576-14.636 13.576l-3.109-.004C2.294 8.057 8.611 1.795 16.43 1.795zm4.638.745c5.81 1.903 10.009 7.412 10.025 13.92.016 6.4-4.099 11.896-10.025 13.925V2.54zM0 32.9h32.87V.028H0v32.873zM43.874 19.55V17.48h6.84v-2.642h-6.841V10.99h7.276V8.356H41.073V19.43c0 2.8 1.193 4.714 3.991 5.108a.745.745 0 00.163.025h.05c.287.032.58.053.887.053h5.18v-2.632h-5.157c-.89 0-2.313-.439-2.313-2.434M53.334 16.04v8.581h2.8V8.352h-2.8zM60.836 17.455c.118-1.43 1.571-2.579 3.33-2.579 1.64 0 2.977 1.173 2.977 2.58h-6.307zm3.33-4.97c-3.54 0-6.19 2.438-6.19 6.236v.094c0 3.705 2.556 6.096 6.26 6.096 1.782 0 3.446-.492 4.97-2.11L67.52 21.16c-.892.89-1.759 1.36-3.19 1.36-2.086 0-3.47-1.22-3.563-3.095h9.19c.048-.47.048-.985.048-.985 0-3.306-2.322-5.955-5.838-5.955zM77.874 14.994c1.266 0 2.204.468 3.001 1.289l1.735-1.805c-1.36-1.454-2.977-2.04-4.736-2.04-3.564 0-6.424 2.65-6.424 6.26s2.86 6.26 6.424 6.26c1.759 0 3.376-.586 4.736-2.04l-1.735-1.805c-.797.82-1.735 1.29-3.001 1.29-2.063 0-3.634-1.571-3.634-3.705 0-2.134 1.57-3.704 3.634-3.704M87.155 19.555h-.004V15.4H89.7v-2.545h-2.544V8.352h-2.801V19.72h.008c.08 2.642 1.281 4.443 3.983 4.823a.744.744 0 00.162.025h.052a8 8 0 00.886.053h.296l.01-2.632h-.283c-.89 0-2.313-.439-2.313-2.434M94.834 14.606v-1.75h-2.779v11.766h2.779v-6.187c0-1.937 1.237-3.151 3.174-3.151.443 0 .84.046 1.167.117v-2.708a6.04 6.04 0 00-.84-.07c-1.681 0-2.942.77-3.501 1.983M106.024 22.427c-2.078 0-3.641-1.61-3.641-3.688 0-2.078 1.563-3.688 3.64-3.688 2.055 0 3.641 1.61 3.641 3.688 0 2.077-1.586 3.688-3.64 3.688m0-9.92c-3.572 0-6.42 2.707-6.42 6.232 0 3.524 2.848 6.233 6.42 6.233 3.547 0 6.418-2.71 6.418-6.233 0-3.525-2.871-6.232-6.418-6.232M114.165 15.76v8.861h2.802V8.351h-2.802zM127.07 19.696c0 1.867-1.097 2.661-2.569 2.661-1.47 0-2.567-.794-2.567-2.637v-6.863h-2.825v7.096c0 3.362 2.451 4.972 5.37 4.972 2.94 0 5.414-1.634 5.414-5.042v-7.026h-2.824v6.839zM140.491 20.86l-1.767-2.47 2.188-2.98 1.873-2.553h-3.057l-2.545 3.525-2.568-3.525h-3.034l1.74 2.38 2.322 3.175-2.433 3.389-2.026 2.82h3.011l2.988-4.155 2.988 4.155h3.011z"/></g></svg>