<svg width="24" height="24" xmlns="http://www.w3.org/2000/svg"><g fill="#011E41" fill-rule="nonzero"><path d="M24 1.8c0-.3-.282-.567-.6-.567h-6c-.318 0-.6.267-.6.567 0 .3.282.567.6.567h5.4v20.4H1.2v-20.4h5.365c.317 0 .6-.267.6-.567 0-.3-.283-.567-.6-.567H.6a.602.602 0 00-.424.167.537.537 0 00-.176.4v21.533c0 .3.282.567.6.567h22.8a.602.602 0 00.424-.167.598.598 0 00.176-.4V1.8z"/><path d="M8.788 4.933l2.683 5.034c.105.2.317.3.529.3a.663.663 0 00.53-.3L15.211 4.9c.212-.467.353-.933.353-1.433C15.565 1.6 13.976.1 12 .1S8.435 1.6 8.435 3.467c0 .5.106 1 .353 1.466zM12 1.233c1.306 0 2.365 1 2.365 2.234 0 .333-.07.666-.212.933L12 8.433 9.882 4.4a2.278 2.278 0 01-.211-.967c-.036-1.2 1.023-2.2 2.329-2.2z"/><ellipse cx="12" cy="3.533" rx="1.2" ry="1.133"/><path d="M16.518 17.6c.07 0 .176 0 .247-.033a4.95 4.95 0 001.164-.667.562.562 0 00.247-.433.416.416 0 00-.14-.334c-.212-.233-.6-.3-.848-.1-.282.2-.564.367-.882.5a.675.675 0 00-.318.3.47.47 0 000 .434c.07.2.283.333.53.333zM18.776 15.2c.071.033.177.067.283.067.212 0 .423-.1.53-.3.352-.6.493-1.067.529-1.167 0-.033.035-.1.035-.133a.546.546 0 00-.424-.534.638.638 0 00-.74.4s-.036.1-.107.234c-.07.166-.176.4-.317.666-.07.134-.106.3-.036.434 0 .133.106.266.247.333zM6.706 14a.47.47 0 000 .433c.106.2.318.334.565.334.07 0 .176 0 .247-.034.317-.133.635-.2.988-.233.318-.033.53-.267.53-.567v-.066c-.036-.3-.318-.534-.671-.5-.46.033-.918.166-1.341.333-.142.033-.248.133-.318.3zM6.07 15.667c0-.2-.105-.367-.246-.467-.283-.167-.671-.1-.848.133-.14.2-.282.434-.423.7-.6.067-1.024.534-1.024 1.134 0 .633.53 1.133 1.2 1.133.671 0 1.2-.5 1.2-1.133 0-.267-.105-.5-.247-.7l.318-.5c.035-.1.07-.2.07-.3zM13.447 16.467c-.247-.2-.635-.134-.847.1-.106.133-.141.266-.106.433.035.167.106.3.212.367.388.3.847.466 1.376.533h.106c.283 0 .565-.2.6-.467v-.1c0-.266-.212-.5-.494-.566a1.698 1.698 0 01-.847-.3zM11.047 13.9c-.282-.167-.67-.1-.847.167-.106.133-.106.266-.106.433a.63.63 0 00.247.367c.247.166.459.366.706.666a.614.614 0 00.459.234.467.467 0 00.353-.134.562.562 0 00.247-.433.537.537 0 00-.141-.367c-.247-.433-.565-.7-.918-.933z"/></g></svg>