<svg width="20" height="20" xmlns="http://www.w3.org/2000/svg" xmlns:xlink="http://www.w3.org/1999/xlink"><defs><path d="M9 2c.414 0 .75.326.75.727a.739.739 0 01-.75.728H5.25a.739.739 0 00-.75.727v11.636c0 .402.336.727.75.727H9c.414 0 .75.326.75.728A.739.739 0 019 18H5.25C4.007 18 3 17.023 3 15.818V4.182C3 2.977 4.007 2 5.25 2zm4.72 4.577a.767.767 0 011.06 0l3 2.909a.738.738 0 01.208.381A.703.703 0 0118 10l-.004-.07A.71.71 0 0118 9.97L18 10a.718.718 0 01-.22.514l.07-.078a.733.733 0 01-.006.008l-.064.07-3 2.91a.767.767 0 01-1.06 0 .712.712 0 010-1.03l1.719-1.667H8.25a.743.743 0 01-.743-.628L7.5 10c0-.402.336-.727.75-.727l7.188-.001-1.718-1.667a.711.711 0 01-.073-.947z" id="a"/></defs><g fill="none" fill-rule="evenodd"><path d="M0 0h20v20H0z"/><use fill="#011E41" fill-rule="nonzero" xlink:href="#a"/></g></svg>