<svg width="29" height="40" xmlns="http://www.w3.org/2000/svg"><g fill="none" fill-rule="evenodd"><path fill="#FFF" d="M8.25 9.2h12.5v12H8.25z"/><path d="M14.453 20.02c-3.375 0-6.111-2.618-6.111-5.846 0-3.23 2.736-5.846 6.11-5.846 3.376 0 6.112 2.617 6.112 5.846 0 3.228-2.736 5.845-6.111 5.845m0-17.518C7.917 2.5 2.5 7.56 2.5 13.814c0 3.447 2.02 6.346 2.02 6.346 9.991 14.64 9.933 16.989 9.933 16.989s-.058-2.35 9.932-16.99c0 0 2.02-2.898 2.02-6.345C26.406 7.56 20.99 2.5 14.454 2.5" fill="#011E41"/><path d="M14.453 19.02c2.832 0 5.111-2.18 5.111-4.846s-2.279-4.846-5.111-4.846c-2.833 0-5.111 2.18-5.111 4.846s2.279 4.845 5.11 4.845zm0 15.329c-.736 1.513-1.006 2.364-1 2.812v.004l2 .008v-.012c.005-.448-.264-1.3-1-2.812zm0-32.848c7.1 0 12.953 5.517 12.953 12.313 0 1.661-.412 3.304-1.094 4.866-.408.932-.819 1.639-1.1 2.043-4.328 6.342-7.101 10.854-8.628 13.835-.523 1.022-.853 1.775-1.03 2.293-.083.247-.1.334-.101.285v-.012l-2 .008v.004c0 .05-.018-.038-.102-.285-.176-.518-.506-1.27-1.03-2.293-1.526-2.98-4.299-7.493-8.62-13.827-.288-.412-.7-1.119-1.107-2.051C1.91 17.118 1.5 15.475 1.5 13.814 1.5 7.018 7.353 1.5 14.453 1.5z" stroke="#FFF" stroke-width="2" stroke-linecap="round" stroke-linejoin="round"/></g></svg>