<svg width="24" height="24" fill="none" xmlns="http://www.w3.org/2000/svg"><path d="M18.316 15.92a9.19 9.19 0 002.899-6.705 9.12 9.12 0 00-1.99-5.721A9.262 9.262 0 0014.221.27a.47.47 0 00-.226.91 8.26 8.26 0 016.281 8.035c0 4.565-3.713 8.278-8.277 8.278-4.565 0-8.278-3.713-8.278-8.278a8.26 8.26 0 016.28-8.035.469.469 0 00-.225-.91 9.262 9.262 0 00-5.002 3.224 9.12 9.12 0 00-1.99 5.721 9.19 9.19 0 002.898 6.704L3.23 20.613a.469.469 0 00.197.631l.017.01a.469.469 0 00.34.037l3.402-.92 1.185 3.318a.469.469 0 00.857.06L12 18.445l2.772 5.302a.468.468 0 00.857-.06l1.185-3.318 3.401.921a.469.469 0 00.341-.038l.017-.009a.469.469 0 00.197-.631l-2.454-4.694zm-9.423 6.444l-.97-2.717a.469.469 0 00-.565-.295l-2.81.761 1.868-3.572a9.167 9.167 0 004.563 1.833l-2.086 3.99zm7.748-3.012a.469.469 0 00-.564.295l-.97 2.718-2.087-3.991a9.166 9.166 0 004.563-1.833l1.868 3.572-2.81-.76z" fill="#011E41"/><path d="M12 .938A.469.469 0 1012 0a.469.469 0 000 .938zM11.54 6.285l-1.054 2.151-2.361-.528a.516.516 0 00-.501.162.5.5 0 00-.09.513l.953 2.408H8.42a.508.508 0 00-.511.505c0 .278.229.504.511.504h7.16a.508.508 0 00.511-.505.508.508 0 00-.511-.504h-.067l.952-2.408a.5.5 0 00-.089-.513.516.516 0 00-.5-.163l-2.362.529-1.054-2.151a.512.512 0 00-.92 0zm1.23 2.951a.513.513 0 00.574.273l1.818-.407-.746 1.889H9.585l-.747-1.89 1.818.408a.514.514 0 00.574-.273L12 7.664l.77 1.572z" fill="#011E41"/></svg>