<svg width="10" height="15" xmlns="http://www.w3.org/2000/svg"><path d="M9.739 3.726c-.052-.2-.156-.413-.233-.6C8.582.826 6.564 0 4.935 0 2.753 0 .35 1.517.03 4.644v.638c0 .027.01.267.022.386.18 1.49 1.313 3.074 2.16 4.564.911 1.597 1.856 3.167 2.793 4.737.577-1.024 1.153-2.062 1.717-3.06.154-.293.332-.586.486-.865.103-.186.299-.373.388-.546.911-1.73 2.377-3.472 2.377-5.189v-.705c0-.186-.222-.838-.234-.878zM4.975 6.932c-.642 0-1.343-.332-1.69-1.25-.051-.146-.047-.44-.047-.466v-.413c0-1.17.958-1.703 1.792-1.703 1.026 0 1.82.852 1.82 1.917 0 1.064-.849 1.915-1.875 1.915z" fill="#fff" fill-rule="nonzero"/></svg>