<svg width="20" height="20" xmlns="http://www.w3.org/2000/svg"><g fill="#011E41" fill-rule="nonzero"><path d="M19.306 19.917H3.528a.487.487 0 01-.472-.473V9.084c0-.25.222-.473.472-.473.25 0 .472.222.472.472v9.89h14.861V1.916H9.194a.487.487 0 01-.472-.473c0-.25.222-.472.472-.472h10.14c.25 0 .472.222.472.472v18c-.028.25-.223.473-.5.473z"/><path d="M15.222 12.833H7.667a.487.487 0 01-.473-.472c0-.25.223-.472.473-.472h7.555c.25 0 .472.222.472.472 0 .25-.222.472-.472.472zM15.222 16.139H7.667a.487.487 0 01-.473-.472c0-.25.223-.473.473-.473h7.555c.25 0 .472.223.472.473 0 .25-.222.472-.472.472zM15.111 9.5H7.667a.487.487 0 01-.473-.472c0-.25.223-.472.473-.472h7.472c.25 0 .472.222.472.472-.028.278-.222.472-.5.472zM4 7.639A3.782 3.782 0 01.222 3.86 3.782 3.782 0 014 .083a3.782 3.782 0 013.778 3.778A3.782 3.782 0 014 7.64zm0-6.611A2.845 2.845 0 001.167 3.86 2.845 2.845 0 004 6.694a2.845 2.845 0 002.833-2.833A2.845 2.845 0 004 1.028z"/><path d="M5.25 4.778H3.722a.487.487 0 01-.472-.472V2.25c0-.25.222-.472.472-.472.25 0 .472.222.472.472v1.583H5.25c.25 0 .472.223.472.473 0 .25-.222.472-.472.472z"/></g></svg>