<svg width="24" height="24" xmlns="http://www.w3.org/2000/svg"><g fill="none" fill-rule="evenodd"><path d="M12 12.6c-5.753 0-10.447 4.518-10.765 10.2H22.8c-.353-5.682-5.047-10.2-10.8-10.2z"/><circle cx="12" cy="6.282" r="5.082"/><path d="M15 11.788a6.268 6.268 0 003.247-5.506C18.282 2.824 15.46 0 12 0S5.718 2.824 5.718 6.282a6.268 6.268 0 003.247 5.506C3.812 13.13 0 17.824 0 23.4c0 .318.282.6.6.6h22.8c.318 0 .6-.282.6-.6 0-5.576-3.812-10.27-9-11.612zM6.918 6.282C6.918 3.494 9.212 1.2 12 1.2s5.082 2.294 5.082 5.082c0 2.789-2.294 5.083-5.082 5.083S6.918 9.07 6.918 6.282zM1.235 22.8C1.553 17.118 6.247 12.6 12 12.6c5.753 0 10.447 4.518 10.765 10.2H1.235z" fill="#011E41" fill-rule="nonzero"/></g></svg>