<svg width="24" height="24" fill="none" xmlns="http://www.w3.org/2000/svg"><path fill-rule="evenodd" clip-rule="evenodd" d="M6 6c-.827 0-1.5-.673-1.5-1.5V4H3c-.827 0-1.5.673-1.5 1.5v13c0 .827.673 1.5 1.5 1.5h7a.5.5 0 010 1H3a2.502 2.502 0 01-2.5-2.5v-13C.5 4.121 1.621 3 3 3h1.5v-.5A.5.5 0 015 2h1.55C6.782.86 7.793 0 9 0s2.218.86 2.45 2H13a.5.5 0 01.5.5V3H15c1.379 0 2.5 1.121 2.5 2.5v6a.5.5 0 01-1 0v-6c0-.827-.673-1.5-1.5-1.5h-1.5v.5c0 .827-.673 1.5-1.5 1.5H6zm-.5-1.5V3H7a.5.5 0 00.5-.5C7.5 1.673 8.173 1 9 1s1.5.673 1.5 1.5a.5.5 0 00.5.5h1.5v1.5c0 .275-.225.5-.5.5H6a.501.501 0 01-.5-.5zM11.394 24a.5.5 0 01-.491-.597l.707-3.535a.49.49 0 01.137-.256l7.778-7.778a1.503 1.503 0 012.121 0l1.414 1.414a1.501 1.501 0 010 2.121l-7.778 7.778a.497.497 0 01-.256.137l-3.535.707a.53.53 0 01-.097.009zm1.168-3.789l-.53 2.651 2.651-.53 7.671-7.671a.5.5 0 000-.707L20.94 12.54a.5.5 0 00-.707 0l-7.67 7.671zM4 9h10a.5.5 0 000-1H4a.5.5 0 000 1zm10 3H4a.5.5 0 010-1h10a.5.5 0 010 1zM4 15h10a.5.5 0 000-1H4a.5.5 0 000 1z" fill="#011E41"/></svg>