<svg width="24" height="24" xmlns="http://www.w3.org/2000/svg"><defs><path id="a" d="M0 0h24v24H0z"/></defs><g fill="none" fill-rule="evenodd"><path d="M9.4.115a9.021 9.021 0 100 18.043A9.021 9.021 0 009.4.115m0 1.021c4.41 0 8 3.59 8 8 0 4.412-3.59 8-8 8-4.412 0-8-3.588-8-8 0-4.41 3.588-8 8-8" fill="#011E41" fill-rule="nonzero"/><path fill="#011E41" fill-rule="nonzero" d="M22.322 22.88l-7.631-7.632 1.187-1.188 7.632 7.632zM14.019 8.152a4.717 4.717 0 00-1.246-2.321 4.697 4.697 0 00-3.278-1.417l.035-1.68a6.367 6.367 0 014.443 1.92 6.395 6.395 0 011.689 3.147l-1.643.35zM15.396 11.529l-1.578-.576c.178-.49.274-1.002.285-1.523l1.68.035a6.392 6.392 0 01-.387 2.064"/></g></svg>