<svg width="26" height="26" fill="none" xmlns="http://www.w3.org/2000/svg"><path fill-rule="evenodd" clip-rule="evenodd" d="M23.924 6.24a2.892 2.892 0 00-3.293-.502V3.752c-.002-1.52-1.267-2.75-2.829-2.752H3.828C2.267 1.002 1.002 2.233 1 3.752v18.496c.002 1.52 1.267 2.75 2.828 2.752h13.974c1.562-.002 2.827-1.233 2.829-2.752v-8.43l3.54-3.445a2.7 2.7 0 000-3.892l-.247-.242zm-12.46 10.345l2.06 2.023-2.805.724.744-2.747zm.503-1.07l2.648 2.601 7.644-7.439-2.65-2.578-7.642 7.417zm7.532 6.733c0 .911-.76 1.65-1.697 1.651H3.828c-.937-.001-1.696-.74-1.697-1.651V3.752c.001-.911.76-1.65 1.697-1.651h13.974c.937.001 1.697.74 1.697 1.651v2.9l-8.73 8.471a.548.548 0 00-.148.25l-1.243 4.594a.541.541 0 00.147.53c.142.138.35.192.545.142l4.688-1.21a.568.568 0 00.255-.143L19.5 14.92v7.328zm3.56-12.35l.313-.304a1.622 1.622 0 000-2.335l-.248-.241a1.733 1.733 0 00-2.398-.002l-.315.306 2.648 2.577z" fill="#011E41"/><path d="M20.63 5.738h-.1V5.9l.145-.072-.044-.09zm3.294.501l.07-.071-.07.071zM20.63 3.752h.1-.1zM17.802 1V.9 1zM3.828 1V.9 1zM1 3.752H.9 1zm0 18.496H.9 1zM3.828 25v.1-.1zm13.974 0v.1-.1zm2.829-2.752h.1-.1zm0-8.43l-.07-.07-.03.029v.042h.1zm3.54-3.445l-.07-.072.07.072zm0-3.892l.07-.072-.07.072zM13.525 18.608l.025.097.17-.044-.125-.124-.07.071zm-2.06-2.023l.07-.072-.123-.12-.044.165.096.027zm-.745 2.747l-.096-.026-.045.166.166-.043-.025-.097zm3.896-1.216l-.07.071.07.069.07-.068-.07-.072zm-2.648-2.6l-.07-.072-.073.071.073.072.07-.071zm10.292-4.839l.07.072.073-.072-.073-.072-.07.072zM19.609 8.1l.07-.071-.07-.068-.069.067.07.072zm-1.807 15.8v.1-.1zm1.697-1.651h.1-.1zM3.83 23.899v.1-.1zM2.13 22.248h-.1.1zm0-18.496h-.1.1zm1.697-1.651V2v.1zm13.974 0V2v.1zM19.5 3.752h.1-.1zm0 2.9l.07.071.03-.03v-.042h-.1zm-8.73 8.471l.07.072-.07-.072zm-.148.25l.097.026-.097-.026zm-1.243 4.594l-.097-.026.097.026zm.147.53l-.07.071.07-.071zm.545.142l.025.097-.025-.097zm4.688-1.21l-.025-.098.025.097zm.255-.143l-.07-.072.07.072zM19.5 14.92h.1v-.237l-.17.165.07.072zm3.873-5.326l.07.072-.07-.072zm-.313.305l-.07.071.07.068.07-.068-.07-.071zm.313-2.64l.07-.071-.07.071zm-.248-.241l.07-.072-.07.072zm-2.398-.002l-.07-.072.07.072zm-.315.306l-.07-.072-.074.072.074.071.07-.071zm.264-1.494a2.792 2.792 0 013.179.483l.14-.143a2.992 2.992 0 00-3.408-.52l.09.18zm-.144-2.076v1.986h.2V3.752h-.2zM17.802 1.1c1.509.002 2.727 1.19 2.729 2.652h.2C20.729 2.175 19.416.902 17.803.9v.2zm-13.974 0h13.974V.9H3.828v.2zM1.1 3.752c.002-1.461 1.22-2.65 2.728-2.652V.9C2.214.902.902 2.175.9 3.752h.2zm0 18.496V3.752H.9v18.496h.2zM3.828 24.9c-1.508-.002-2.726-1.19-2.728-2.652H.9c.002 1.577 1.314 2.85 2.928 2.852v-.2zm13.974 0H3.828v.2h13.974v-.2zm2.729-2.652c-.002 1.461-1.22 2.65-2.729 2.652v.2c1.614-.002 2.927-1.275 2.929-2.852h-.2zm0-8.43v8.43h.2v-8.43h-.2zm3.57-3.517l-3.54 3.446.14.143 3.54-3.446-.14-.143zm0-3.749a2.6 2.6 0 010 3.75l.14.143a2.8 2.8 0 000-4.036l-.14.143zm-.247-.24l.248.24.14-.143-.249-.241-.14.143zm-10.26 12.225l-2.06-2.024-.14.143 2.06 2.024.14-.143zm-2.85.892l2.805-.724-.05-.194-2.805.724.05.194zm.623-2.87l-.744 2.747.193.052.744-2.747-.193-.053zm3.318 1.486l-2.648-2.6-.14.142 2.648 2.6.14-.142zm7.504-7.44l-7.644 7.44.14.143 7.644-7.44-.14-.143zM19.54 8.171l2.65 2.578.139-.144-2.65-2.577-.139.143zm-7.503 7.416l7.643-7.416-.14-.144-7.642 7.417.139.143zM17.803 24c.989-.001 1.795-.782 1.796-1.751h-.2c0 .854-.712 1.55-1.597 1.551v.2zM3.828 24h13.974v-.2H3.828v.2zm-1.797-1.751c.001.97.808 1.75 1.797 1.751v-.2c-.884 0-1.596-.697-1.597-1.551h-.2zm0-18.496v18.496h.2V3.752h-.2zm1.797-1.751c-.99.001-1.796.782-1.797 1.751h.2c.001-.854.713-1.55 1.597-1.551V2zm13.974 0H3.828v.2h13.974V2zM19.6 3.752c0-.97-.807-1.75-1.796-1.751v.2c.884 0 1.595.697 1.596 1.551h.2zm0 2.9v-2.9h-.2v2.9h.2zm-8.76 8.543l8.73-8.472-.14-.144-8.73 8.472.14.144zm-.12.204a.445.445 0 01.12-.204l-.14-.144a.646.646 0 00-.174.296l.193.052zm-1.245 4.594l1.244-4.594-.193-.052-1.244 4.594.193.052zm.12.432a.44.44 0 01-.12-.432l-.193-.052a.64.64 0 00.174.627l.14-.143zm.45.117a.476.476 0 01-.45-.117l-.139.143a.676.676 0 00.64.168l-.05-.194zm4.69-1.21l-4.69 1.21.05.194 4.69-1.21-.05-.195zm.21-.118a.469.469 0 01-.21.117l.05.194a.668.668 0 00.299-.168l-.14-.143zm4.486-4.366l-4.487 4.366.14.143 4.486-4.366-.14-.143zm.17 7.4V14.92h-.2v7.328h.2zm3.702-12.725l-.313.304.14.143.312-.304-.14-.143zm0-2.192a1.522 1.522 0 010 2.192l.14.143a1.722 1.722 0 000-2.478l-.14.143zm-.248-.241l.248.24.14-.143-.249-.24-.14.143zm-2.258-.002a1.633 1.633 0 012.258.002l.14-.144a1.833 1.833 0 00-2.537-.002l.139.144zm-.316.305l.316-.306-.14-.143-.315.306.14.143zm2.649 2.434L20.48 7.25l-.139.143 2.648 2.577.14-.143z" fill="#011E41"/><path d="M5.28 7.729h9.754" stroke="#011E41" stroke-linecap="round"/><path d="M5.28 11.729h5.754H5.28z" fill="#011E41"/><path d="M5.28 11.729h5.754" stroke="#011E41" stroke-linecap="round"/></svg>