<svg width="95" height="15" xmlns="http://www.w3.org/2000/svg"><path d="M87.68 0l2.53 5.21 5.73.79-4.17 4.01 1.01 5.69-5.1-2.73-5.1 2.73 1.02-5.69L79.43 6l5.73-.79L87.68 0zM8.25 0l2.53 5.21 5.73.79-4.17 4.01 1.02 5.69-5.11-2.73-5.1 2.73 1.02-5.69L0 6l5.73-.79L8.25 0zM67.83 0l2.52 5.21 5.73.79-4.17 4.01 1.02 5.69-5.1-2.73-5.11 2.73 1.02-5.69L59.57 6l5.73-.79L67.83 0zM47.97 0l2.52 5.21 5.73.79-4.17 4.01 1.02 5.69-5.1-2.73-5.1 2.73 1.01-5.69L39.71 6l5.74-.79L47.97 0zM28.11 0l2.53 5.21 5.73.79-4.17 4.01 1.01 5.69-5.1-2.73-5.1 2.73 1.02-5.69L19.86 6l5.73-.79L28.11 0z"/></svg>